<svg xmlns="http://www.w3.org/2000/svg"
  id="gear"
  viewBox="0 0 24 24"
  fill="none"
  stroke="currentColor"
  stroke-width="2"
  stroke-linecap="round"
  stroke-linejoin="round"
>
  <path d="M10.3 4.3c0.4 -1.8 2.9 -1.8 3.4 0a1.7 1.7 0 0 0 2.6 1.1c1.5 -0.9 3.3 0.8 2.4 2.4a1.7 1.7 0 0 0 1.1 2.6c1.8 0.4 1.8 2.9 0 3.4a1.7 1.7 0 0 0 -1.1 2.6c0.9 1.5 -0.8 3.3 -2.4 2.4a1.7 1.7 0 0 0 -2.6 1.1c-0.4 1.8 -2.9 1.8 -3.4 0a1.7 1.7 0 0 0 -2.6 -1.1c-1.5 0.9 -3.3 -0.8 -2.4 -2.4a1.7 1.7 0 0 0 -1.1 -2.6c-1.8 -0.4 -1.8 -2.9 0 -3.4a1.7 1.7 0 0 0 1.1 -2.6c-0.9 -1.5 0.8 -3.3 2.4 -2.4c1 0.6 2.3 0.1 2.6 -1.1" />
  <path d="M9 12a3 3 0 1 0 6 0a3 3 0 0 0 -6 0" />
</svg>