<svg xmlns="http://www.w3.org/2000/svg"
  id="party"
  viewBox="0 0 24 24"
  fill="currentColor">
  <path d="M3 5a1 1 0 0 1 1 -1a1 1 0 0 1 2 -0.1l0 0.1a1 1 0 0 1 0.1 2l-0.1 0a1 1 0 1 1 -2 0a1 1 0 0 1 -1 -1m7.5 -1.2a1 1 0 1 1 1.9 0.5l-0.5 2a1 1 0 1 1 -1.9 -0.5zm6.5 1.2a1 1 0 0 1 1 -1a1 1 0 0 1 2 -0.1l0 0.1a1 1 0 0 1 0.1 2l-0.1 0a1 1 0 0 1 -2 0a1 1 0 0 1 -1 -1m-8.8 4.3l6.5 6.5a1 1 0 0 1 -0.3 1.6l-9.6 4.4a2 2 0 0 1 -2.7 -2.7l4.4 -9.6a1 1 0 0 1 1.6 -0.3m7.5 -1a1 1 0 0 1 0 1.4l-1 1a1 1 0 0 1 -1.4 -1.4l1 -1a1 1 0 0 1 1.4 0m4 3.2a1 1 0 0 1 0.5 1.9l-2 0.5a1 1 0 0 1 -0.5 -1.9zm-2.8 7.5a1 1 0 0 1 1 -1a1 1 0 0 1 2 -0.1l0 0.1a1 1 0 0 1 0.1 2l-0.1 0a1 1 0 0 1 -2 0a1 1 0 0 1 -1 -1" />
</svg>