<svg xmlns="http://www.w3.org/2000/svg"
  id="puzzle"
  viewBox="0 0 24 24"
  fill="currentColor"
  stroke="none"
>
  <path d="m 10.8,2 c 1.4,0 2.5,0.8 2.5,1.9 0,1 -0.9,1.2 -0.9,2.1 C 12.3,6.5 12.8,7 13.4,7 h 1.8 C 16.2,7 17,7.8 17,8.9 v 1.8 c 0,0.6 0.5,1.1 1.1,1.1 0.9,0 1.1,-0.9 2.1,-0.9 1,0 1.9,1.1 1.9,2.5 0,1.4 -0.8,2.5 -1.9,2.5 -1,0 -1.2,-0.9 -2.1,-0.9 C 17.5,14.8 17,15.3 17,15.9 v 4.2 C 17,21.2 16.2,22 15.1,22 H 12.9 C 12.4,22 12,21.6 12,21.1 12,20.2 13.2,20.1 13.2,18.9 13.2,17.8 12.1,17 10.8,17 c -1.4,0 -2.5,0.8 -2.5,1.9 0,1.2 1.2,1.3 1.2,2.2 C 9.5,21.6 9.1,22 8.6,22 H 3.9 C 2.8,22 2,21.2 2,20.1 V 15.4 C 2,14.9 2.4,14.5 2.9,14.5 3.8,14.5 3.9,15.8 5.1,15.8 6.2,15.8 7,14.6 7,13.2 7,11.9 6.2,10.8 5.1,10.8 3.9,10.8 3.8,12 2.9,12 2.4,12 2,11.6 2,11.1 V 8.9 C 2,7.8 2.8,7 3.9,7 h 4.2 C 8.7,7 9.2,6.5 9.2,5.9 9.2,5.1 8.2,4.9 8.2,3.9 8.2,2.8 9.4,2 10.8,2 Z" />
</svg>
