<svg xmlns="http://www.w3.org/2000/svg"
  id="unicorn"
  viewBox="0 0 64 64"
  stroke-width="2"
  stroke-linecap="round"
  stroke-linejoin="round"
  xmlns:dc="http://purl.org/dc/elements/1.1/"
  xmlns:cc="http://creativecommons.org/ns#"
  xmlns:rdf="http://www.w3.org/1999/02/22-rdf-syntax-ns#">
  <metadata>
    <rdf:RDF>
      <cc:Work rdf:about="">
        <dc:title>Sofie Ascherl</dc:title>
        <dc:creator>
          <cc:Agent>
            <dc:title>Unicorn</dc:title>
          </cc:Agent>
        </dc:creator>
        <cc:license rdf:resource="https://creativecommons.org/licenses/by-sa/4.0/" />
      </cc:Work>
    </rdf:RDF>
  </metadata>
  <path stroke="currentColor" fill="none" d="M 53,33 C 64.6,48.5 55,47.3 59,57 62,64 45,53 51,41 57,29 45,19 45,19" />
  <path stroke="currentColor" fill="none" d="m 27,37 c 0,0 8.5,8 0,20" />
  <path stroke="currentColor" fill="none" d="m 25,9 c 0,0 24,-4 20,20 -1.4,9 0,18 4,22 C 41,51 33,41 37,29 41,17 27,13 27,13 26,7 19,7 19,7 L 21,15 5,7 15,19 7,33 c 0,0 -2,2 0,4 2,2 6,4 10,0 4,-4 12,-2 12,-10" />
  <circle stroke="none" fill="currentColor" cx="20" cy="24" r="2" />
</svg>
