<svg
  xmlns="http://www.w3.org/2000/svg"
  xmlns:dc="http://purl.org/dc/elements/1.1/"
  viewBox="180 20 200 160"
  version="1.1"
  id="sourcetree"
  stroke-width="2"
  font-family="sans-serif"
  font-size="12.8px"
  text-anchor="middle">
  <g transform="matrix(0.24225371,0,0,0.27585347,136.59653,7.6761732)">
    <g transform="translate(2.0922548,13.78059)">
      <rect style="fill:var(--entry);stroke:var(--secondary);" x="491.6" y="42" width="40.7" height="54" rx="0" ry="0" />
      <text font-size="12.8" style="fill:var(--secondary);stroke:none" x="512" y="72.9">
        <tspan x="512" y="72.9">src</tspan>
      </text>
    </g>
    <g transform="translate(2.0922548,13.78059)">
      <rect style="fill:var(--entry);stroke:var(--secondary);" x="182.2" y="160.5" width="139.6" height="86" rx="0" ry="0" />
      <text font-size="12.8" style="fill:var(--secondary);stroke:none" x="252" y="183.4">
        <tspan x="252" y="183.4">App:</tspan>
        <tspan x="252" y="199.4">Document</tspan>
        <tspan x="252" y="215.4">Objects</tspan>
        <tspan x="252" y="231.4">Event Propagation</tspan>
      </text>
    </g>
    <g transform="translate(2.0922548,13.78059)">
      <rect style="fill:var(--entry);stroke:var(--secondary);" x="359.9" y="160.5" width="145.9" height="70" rx="0" ry="0" />
      <text font-size="12.8" style="fill:var(--secondary);stroke:none" x="432.9" y="183.4">
        <tspan x="432.9" y="183.4">Base:</tspan>
        <tspan x="432.9" y="199.4">Fundamental Types</tspan>
        <tspan x="432.9" y="215.4">Utilities</tspan>
      </text>
    </g>
    <g transform="translate(2.0922548,13.78059)">
      <rect style="fill:var(--entry);stroke:var(--secondary);" x="543.9" y="160.5" width="69.4" height="86" rx="0" ry="0" />
      <text font-size="12.8" style="fill:var(--secondary);stroke:none" x="578.6" y="183.4">
        <tspan x="578.6" y="183.4">Gui:</tspan>
        <tspan x="578.6" y="199.4">Display</tspan>
        <tspan x="578.6" y="215.4">Dialogs</tspan>
        <tspan x="578.6" y="231.4">Menus</tspan>
      </text>
    </g>
    <g transform="translate(2.0922548,13.78059)">
      <rect style="fill:var(--entry);stroke:var(--secondary);" x="651.5" y="160.5" width="131.1" height="54" rx="0" ry="0" />
      <text font-size="12.8" style="fill:var(--secondary);stroke:none" x="717" y="183.4">
        <tspan x="717" y="183.4">Mod:</tspan>
        <tspan x="717" y="199.4">Application Logic</tspan>
      </text>
    </g>
    <g transform="translate(2.0922548,13.78059)">
      <rect style="fill:var(--entry);stroke:var(--secondary);" x="890" y="255" width="80.6" height="54" rx="0" ry="0" />
      <text font-size="12.8" style="fill:var(--secondary);stroke:none" x="930.3" y="277.9">
        <tspan x="930.3" y="277.9">Arch:</tspan>
        <tspan x="930.3" y="293.9">Buildings</tspan>
      </text>
    </g>
    <g transform="translate(2.0922548,13.78059)">
      <rect style="fill:var(--entry);stroke:var(--secondary);" x="890" y="333.3" width="88.2" height="54" rx="0" ry="0" />
      <text font-size="12.8" style="fill:var(--secondary);stroke:none" x="934.2" y="356.2">
        <tspan x="934.2" y="356.2">Draft:</tspan>
        <tspan x="934.2" y="372.2">2D Design</tspan>
      </text>
    </g>
    <g transform="translate(2.0922548,13.78059)">
      <rect style="fill:var(--entry);stroke:var(--secondary);" x="890" y="411.7" width="96.9" height="86" rx="0" ry="0" />
      <text font-size="12.8" style="fill:var(--secondary);stroke:none" x="938.5" y="434.5">
        <tspan x="938.5" y="434.5">Part:</tspan>
        <tspan x="938.5" y="450.5">Shapes</tspan>
        <tspan x="938.5" y="466.5">Positioning</tspan>
        <tspan x="938.5" y="482.5">Booleans</tspan>
      </text>
    </g>
    <g transform="translate(2.0922548,13.78059)">
      <rect style="fill:var(--entry);stroke:var(--secondary);" x="890" y="522" width="40" height="38" rx="0" ry="0" />
      <text font-size="12.8" style="fill:var(--secondary);stroke:none" x="910" y="544.9">
        <tspan x="910" y="544.9">...</tspan>
      </text>
    </g>
    <g transform="translate(2.0922548,13.78059)">
      <polyline style="fill:none;stroke:var(--secondary);" points="512,97 512,128.3 252,128.3 252,149.8" />
      <polygon style="fill:var(--secondary);fill-rule:evenodd;stroke:var(--secondary);" points="247,147.3 252,149.8 257,147.3 252,157.3" />
    </g>
    <g transform="translate(2.0922548,13.78059)">
      <polyline style="fill:none;stroke:var(--secondary);" points="512,97 512,128.2 432.9,128.2 432.9,149.8" />
      <polygon style="fill:var(--secondary);stroke:var(--secondary);" points="427.9,147.3 432.9,149.8 437.9,147.3 432.9,157.3" />
    </g>
    <g transform="translate(2.0922548,13.78059)">
      <polyline style="fill:none;stroke:var(--secondary);" points="512,96 512,127.7 578.6,127.7 578.6,149.8" />
      <polygon style="fill:var(--secondary);stroke:var(--secondary);" points="573.6,147.3 578.6,149.8 583.6,147.3 578.6,157.3" />
    </g>
    <g transform="translate(2.0922548,13.78059)">
      <polyline style="fill:none;stroke:var(--secondary);" points="512,97 512,128.2 717,128.2 717,149.8" />
      <polygon style="fill:var(--secondary);stroke:var(--secondary);" points="712,147.3 717,149.8 722,147.3 717,157.3" />
    </g>
    <g transform="translate(2.0922548,13.78059)">
      <polyline style="fill:none;stroke:var(--secondary);" points="783.6,187.5 836.8,187.5 836.8,282 880.3,282" />
      <polygon style="fill:var(--secondary);stroke:var(--secondary);" points="877.8,287 880.3,282 877.8,277 887.8,282" />
    </g>
    <g transform="translate(2.0922548,13.78059)">
      <polyline style="fill:none;stroke:var(--secondary);" points="782.5,187.5 835.8,187.5 835.8,360.3 879.3,360.3" />
      <polygon style="fill:var(--secondary);stroke:var(--secondary);" points="876.8,365.3 879.3,360.3 876.8,355.3 886.8,360.3" />
    </g>
    <g transform="translate(2.0922548,13.78059)">
      <polyline style="fill:none;stroke:var(--secondary);" points="783.6,187.5 836.8,187.5 836.8,454.7 880.3,454.7" />
      <polygon style="fill:var(--secondary);stroke:var(--secondary);" points="877.8,459.7 880.3,454.7 877.8,449.7 887.8,454.7" />
    </g>
    <g transform="translate(2.0922548,13.78059)">
      <polyline style="fill:none;stroke:var(--secondary);" points="783.6,187.5 836.3,187.5 836.3,541 879.3,541" />
      <polygon style="fill:var(--secondary);stroke:var(--secondary);" points="876.8,546 879.3,541 876.8,536 886.8,541" />
    </g>
  </g>
</svg>