<?xml version="1.0" encoding="UTF-8"?>
<svg
  id="logo"
  viewBox="0 0 192 48"
  fill="none"
  stroke="none"
  version="1.1"
  xmlns="http://www.w3.org/2000/svg"
  xmlns:svg="http://www.w3.org/2000/svg"
  xmlns:rdf="http://www.w3.org/1999/02/22-rdf-syntax-ns#"
  xmlns:cc="http://creativecommons.org/ns#"
  xmlns:dc="http://purl.org/dc/elements/1.1/">
  <metadata>
    <rdf:RDF>
      <cc:Work rdf:about="">
        <dc:date>2024-06-01</dc:date>
        <dc:creator>
          <cc:Agent>
            <dc:title>Sebastian Tabares Amaya (sytabaresa), Max Wilfinger (maxwxyz)</dc:title>
          </cc:Agent>
        </dc:creator>
        <dc:publisher>
          <cc:Agent>
            <dc:title>The FreeCAD project association AISBL (FPA)</dc:title>
          </cc:Agent>
        </dc:publisher>
      </cc:Work>
    </rdf:RDF>
  </metadata>
  <path
    fill="currentColor"
    d="M 57.1,35.9 V 11.9 h 12.2 v 2.1 h -9.8 v 8.7 h 9.4 v 2.2 H 59.6 V 35.9 Z m 15.1,0 V 18.2 h 2.3 v 2.5 c 1.0,-2.0 2.4,-2.9 5.1,-3.0 v 2.3 c -3.4,0.3 -5.1,2.1 -5.1,5.4 V 35.9 Z M 98.9,27.9 H 82.7 c 0.2,3.5 3.3,6.3 6.9,6.3 2.8,0 5.2,-1.6 6.3,-4.0 h 2.4 C 97.1,33.8 93.6,36.3 89.8,36.3 c -5.3,0 -9.3,-4.1 -9.3,-9.3 0,-5.2 4.0,-9.2 9.1,-9.2 3.5,0 6.7,1.8 8.3,4.8 0.7,1.5 1.1,3.0 1.1,5.3 z m -16.0,-2.2 h 13.6 c -0.8,-3.5 -3.4,-5.7 -6.9,-5.7 -3.4,0 -6.1,2.3 -6.7,5.7 z m 37.2,2.2 h -16.1 c 0.2,3.5 3.3,6.3 6.9,6.3 2.8,0 5.2,-1.6 6.3,-4.0 h 2.4 c -1.3,3.7 -4.8,6.3 -8.6,6.3 -5.3,0 -9.3,-4.1 -9.3,-9.3 0,-5.2 4.0,-9.2 9.1,-9.2 3.5,0 6.7,1.8 8.3,4.8 0.7,1.5 1.1,3.0 1.1,5.3 z m -16.0,-2.2 h 13.6 c -0.8,-3.5 -3.4,-5.7 -6.9,-5.7 -3.4,0 -6.1,2.3 -6.7,5.7 z m 36.9,3.6 h 5.2 c -1.9,4.4 -6.2,7.1 -11.0,7.1 -7.0,0 -12.6,-5.5 -12.6,-12.5 0,-6.8 5.5,-12.3 12.3,-12.3 3.0,0 5.9,1.1 8.2,2.9 1.5,1.4 2.2,2.4 3.2,4.5 h -5.0 c -1.6,-2.1 -3.5,-3.1 -6.3,-3.1 -2.4,0 -4.6,1.0 -5.9,2.7 -1.3,1.5 -2.0,3.5 -2.0,5.5 0,4.5 3.6,8.2 8.1,8.2 2.3,0 3.9,-0.8 5.9,-2.9 z m 5.7,6.7 10.0,-24.0 h 3.5 L 170.2,35.9 h -4.9 l -2.5,-6.2 h -8.6 l -2.7,6.2 z m 9.1,-10.4 h 5.2 l -2.5,-7.3 z M 172.8,35.9 V 11.9 h 5.5 c 3.9,0 6.8,0.6 8.7,1.9 C 190.2,15.9 192.0,19.6 192.0,23.9 c 0,5.0 -2.2,9.0 -6.1,10.7 -1.9,1.0 -4.0,1.3 -7.5,1.3 z m 4.5,-4.2 h 1.0 c 2.7,0 4.6,-0.3 5.8,-1.1 2.1,-1.2 3.5,-3.7 3.5,-6.7 0,-3.1 -1.5,-5.7 -3.8,-6.9 -1.4,-0.6 -2.9,-0.8 -5.6,-0.8 h -0.8 z" />
  <path
    style="fill:#418fde;fill-opacity:1;fill-rule:evenodd;"
    d="m 40,8 -8,8 H 16 v 6 h 8 v 8 h -8 v 10 l -8,8 h 8.1 c 0.6,0 1.1,-0.4 1.3,-1 l 1.5,-4.5 c 0.1,-0.4 0.5,-0.8 0.9,-0.9 l 1.1,-0.4 c 0.4,-0.1 0.9,-0.1 1.3,0.2 l 3.8,2.8 c 0.5,0.4 1.2,0.4 1.7,0 l 3.4,-2.5 c 0.5,-0.4 0.7,-1 0.5,-1.6 L 30.1,35.6 C 30,35.2 30,34.7 30.3,34.3 l 0.7,-1 c 0.3,-0.4 0.7,-0.6 1.1,-0.6 h 4.7 c 0.6,0 1.1,-0.4 1.3,-1 l 1.3,-4 c 0.2,-0.6 0,-1.2 -0.5,-1.6 L 35.1,23.7 C 34.7,23.4 34.5,23 34.5,22.6 v -1.2 c 0,-0.5 0.2,-0.9 0.6,-1.1 l 4.4,-3.2 C 39.8,16.9 40,16.4 40,16 Z" />
  <path
    style="display:inline;fill:#ff585d;fill-opacity:1;fill-rule:evenodd;"
    d="m 32,0 -8,8 h 8 v 8 L 40,8 V 0 Z M 8,32 0,40 v 8 h 8 l 8,-8 H 8 Z" />
  <path
    style="fill:#cb333b;fill-rule:evenodd;"
    d="M 8,0 0,8 V 40 L 8,32 V 8 h 16 l 8,-8 z" />
  <path
    style="fill:#ffffff;fill-opacity:1;fill-rule:evenodd;"
    d="m 8,40 h 8 V 30 h 8 V 22 H 16 V 16 H 32 V 8 H 8 Z" />
</svg>
