<?xml version='1.0' encoding='utf-8'?>
<svg xmlns="http://www.w3.org/2000/svg" viewBox="0 0 40 48" stroke="none" fill="#aaaaaa">
  <path d="m 8,0 h 32 v 16 c 0,0.5 -0.2,0.9 -0.6,1.1 l -4.4,3.2 c -0.4,0.3 -0.6,0.7 -0.6,1.1 v 1.2 c 0,0.5 0.2,0.9 0.6,1.1 l 3.8,2.8 c 0.5,0.4 0.7,1 0.5,1.6 l -1.3,4 c -0.2,0.6 -0.7,1 -1.3,1 l -4.7,0 c -0.5,0 -0.9,0.2 -1.1,0.6 l -0.7,1 c -0.3,0.4 -0.3,0.8 -0.2,1.3 l 1.5,4.5 c 0.2,0.6 0,1.2 -0.5,1.6 l -3.4,2.5 c -0.5,0.4 -1.2,0.4 -1.7,0 l -3.8,-2.8 c -0.4,-0.3 -0.8,-0.3 -1.3,-0.2 l -1.1,0.4 c -0.4,0.1 -0.8,0.5 -0.9,0.9 l -1.5,4.5 c -0.2,0.6 -0.7,1 -1.3,1 L 0,48 V 8 Z M 32,16 V 8 H 8 v 32 h 8 L 16,30 24,30 v -8 h -8 v -6 z" />
</svg>