<svg
  xmlns="http://www.w3.org/2000/svg"
  viewBox="0 0 250 200"
  version="1.1"
  id="schema"
  stroke-width="1"
  font-family="sans-serif"
  font-size="5px"
  text-anchor="middle">
  <rect style="fill:var(--entry);stroke:var(--secondary);" x="122.8" y="10" width="35.5" height="20.5" rx="0" ry="0" />
  <text style="fill:var(--secondary);" x="140.5" y="18.7">
    <tspan x="140.5" y="18.7">
      Application
    </tspan>
    <tspan x="140.5" y="24.8">
      Module
    </tspan>
  </text>
  <rect style="fill:var(--entry);stroke:var(--secondary);" x="79.5" y="81.8" width="16.5" height="14.4" rx="0" ry="0" />
  <text style="fill:var(--secondary);" x="87.7" y="90.4">
    <tspan x="87.7" y="90.4">
      Gui
    </tspan>
  </text>
  <rect style="fill:var(--entry);stroke:var(--secondary);" x="193.5" y="81.8" width="17.8" height="14.4" rx="0" ry="0" />
  <text style="fill:var(--secondary);" x="202.4" y="90.4">
    <tspan x="202.4" y="90.4">
      App
    </tspan>
  </text>
  <rect style="fill:var(--entry);stroke:var(--secondary);" x="10.6" y="115.9" width="35.8" height="14.4" rx="0" ry="0" />
  <text style="fill:var(--secondary);" x="28.5" y="124.6">
    <tspan x="28.5" y="124.6">
      Commands
    </tspan>
  </text>
  <rect style="fill:var(--entry);stroke:var(--secondary);" x="20" y="145.3" width="26.3" height="20.5" rx="0" ry="0" />
  <text style="fill:var(--secondary);" x="33.2" y="154">
    <tspan x="33.2" y="154">
      Task
    </tspan>
    <tspan x="33.2" y="160.1">
      Dialogs
    </tspan>
  </text>
  <rect style="fill:var(--entry);stroke:var(--secondary);" x="0" y="180.5" width="46.4" height="14.4" rx="0" ry="0" />
  <text style="fill:var(--secondary);" x="23.2" y="189.2">
    <tspan x="23.2" y="189.2">
      Viewproviders
    </tspan>
  </text>
  <rect style="fill:var(--entry);stroke:var(--secondary);" x="220.8" y="115.9" width="29.2" height="14.4" rx="0" ry="0" />
  <text style="fill:var(--secondary);" x="235.4" y="124.6">
    <tspan x="235.4" y="124.6">
      Features
    </tspan>
  </text>
  <rect style="fill:var(--entry);stroke:var(--secondary);" x="220.8" y="153.6" width="26.6" height="14.4" rx="0" ry="0" />
  <text style="fill:var(--secondary);" x="234.1" y="162.3">
    <tspan x="234.1" y="162.3">
      Utilities
    </tspan>
  </text>
  <polyline style="fill:none;stroke:var(--secondary);" points="500,97 500,164 361,164 361,221.3" transform="matrix(0.38,0,0,0.38,-49.32,-6.32)" />
  <polygon style="fill:var(--secondary);stroke:var(--secondary);" points="366,218.8 361,228.8 356,218.8 361,221.3" transform="matrix(0.38,0,0,0.38,-49.32,-6.32)" />
  <polyline style="fill:none;stroke:var(--secondary);" points="500,97 500,164.5 663,164.5 663,222.3" transform="matrix(0.38,0,0,0.38,-49.32,-6.32)" />
  <polygon style="fill:var(--secondary);stroke:var(--secondary);" points="668,219.8 663,229.8 658,219.8 663,222.3" transform="matrix(0.38,0,0,0.38,-49.32,-6.32)" />
  <polyline style="fill:none;stroke:var(--secondary);" points="338.2,251 295.2,251 295.2,341 261.8,341" transform="matrix(0.38,0,0,0.38,-49.32,-6.32)" />
  <polygon style="fill:var(--secondary);stroke:var(--secondary);" points="264.3,346 254.3,341 264.3,336 261.8,341" transform="matrix(0.38,0,0,0.38,-49.32,-6.32)" />
  <polyline style="fill:none;stroke:var(--secondary);" points="338.2,251 295.2,251 295.2,426.5 261.8,426.5" transform="matrix(0.38,0,0,0.38,-49.32,-6.32)" />
  <polygon style="fill:var(--secondary);stroke:var(--secondary);" points="264.3,431.5 254.3,426.5 264.3,421.5 261.8,426.5" transform="matrix(0.38,0,0,0.38,-49.32,-6.32)" />
  <polyline style="fill:none;stroke:var(--secondary);" points="338.2,251 295.7,251 295.7,511 262.8,511" transform="matrix(0.38,0,0,0.38,-49.32,-6.32)" />
  <polygon style="fill:var(--secondary);stroke:var(--secondary);" points="265.3,516 255.3,511 265.3,506 262.8,511" transform="matrix(0.38,0,0,0.38,-49.32,-6.32)" />
  <polyline style="fill:none;stroke:var(--secondary);" points="663,270 663,341 701.8,341" transform="matrix(0.38,0,0,0.38,-49.32,-6.32)" />
  <polygon style="fill:var(--secondary);stroke:var(--secondary);" points="699.3,336 709.3,341 699.3,346 701.8,341" transform="matrix(0.38,0,0,0.38,-49.32,-6.32)" />
  <polyline style="fill:none;stroke:var(--secondary);" points="663,270 663,440.2 701.8,440.2" transform="matrix(0.38,0,0,0.38,-49.32,-6.32)" />
  <polygon style="fill:var(--secondary);stroke:var(--secondary);" points="699.3,435.2 709.3,440.2 699.3,445.2 701.8,440.2" transform="matrix(0.38,0,0,0.38,-49.32,-6.32)" />
</svg>