<?xml version='1.0' encoding='utf-8'?>
<svg
  xmlns="http://www.w3.org/2000/svg"
  xmlns:ns1="http://www.w3.org/1999/xlink"
  viewBox="0 0 153.8 153.8"
  version="1.1"
  id="freecad-news-logo"
  fill="none"
  stroke-linecap="round"
  stroke-linejoin="round">
  <defs id="defs1">
    <linearGradient id="linearGradient3">
      <stop style="stop-color:#204a87;stop-opacity:1;" offset="0" id="stop3-0" />
      <stop style="stop-color:#729fcf;stop-opacity:1;" offset="1" id="stop3-1" />
    </linearGradient>
    <linearGradient id="linearGradient4">
      <stop style="stop-color:#204a87;stop-opacity:1" offset="0" id="stop4-0" />
      <stop style="stop-color:#729fcf;stop-opacity:1" offset="1" id="stop4-1" />
    </linearGradient>
    <linearGradient id="linearGradient2">
      <stop style="stop-color:#a40000;stop-opacity:1" offset="0" id="stop2-0" />
      <stop style="stop-color:#ef2929;stop-opacity:1" offset="1" id="stop2-1" />
    </linearGradient>
    <linearGradient ns1:href="#linearGradient2" id="linearGradient2-1" gradientUnits="userSpaceOnUse" gradientTransform="matrix(2.18,0,0,2.18,476.24,-6.56)" x1="-206.7" y1="68.8" x2="-211.4" y2="7.7" />
    <linearGradient ns1:href="#linearGradient4" id="linearGradient4-1" gradientUnits="userSpaceOnUse" gradientTransform="matrix(2.2,0,0,2.2,411.34,37.67)" x1="-146.7" y1="58.3" x2="-157.3" y2="26.5" />
    <linearGradient ns1:href="#linearGradient3" id="linearGradient3-1" gradientUnits="userSpaceOnUse" gradientTransform="translate(-79.37,-36.1)" x1="82.6" y1="180.6" x2="174.4" y2="120.8" />
    <linearGradient ns1:href="#linearGradient3" id="linearGradient3-2" gradientUnits="userSpaceOnUse" gradientTransform="translate(-63.23,-27.64)" x1="82.6" y1="180.6" x2="174.4" y2="120.8" />
    <linearGradient ns1:href="#linearGradient3" id="linearGradient3-3" gradientUnits="userSpaceOnUse" gradientTransform="translate(-63.23,-27.64)" x1="82.6" y1="180.6" x2="174.4" y2="120.8" />
    <linearGradient ns1:href="#linearGradient3" id="linearGradient3-4" gradientUnits="userSpaceOnUse" gradientTransform="rotate(90,178.52,65.48)" x1="82.6" y1="180.6" x2="174.4" y2="120.8" />
    <linearGradient ns1:href="#linearGradient3" id="linearGradient3-5" gradientUnits="userSpaceOnUse" gradientTransform="rotate(90,178.52,65.48)" x1="82.6" y1="180.6" x2="174.4" y2="120.8" />
    <linearGradient ns1:href="#linearGradient3" id="linearGradient3-6" gradientUnits="userSpaceOnUse" gradientTransform="rotate(135,160.92,90.15)" x1="82.6" y1="180.6" x2="174.4" y2="120.8" />
    <linearGradient ns1:href="#linearGradient3" id="linearGradient3-7" gradientUnits="userSpaceOnUse" gradientTransform="rotate(135,160.92,90.15)" x1="82.6" y1="180.6" x2="174.4" y2="120.8" />
    <linearGradient ns1:href="#linearGradient3" id="linearGradient3-8" gradientUnits="userSpaceOnUse" gradientTransform="rotate(45,221,5.91)" x1="82.6" y1="180.6" x2="174.4" y2="120.8" />
    <linearGradient ns1:href="#linearGradient3" id="linearGradient3-9" gradientUnits="userSpaceOnUse" gradientTransform="rotate(45,221,5.91)" x1="82.6" y1="180.6" x2="174.4" y2="120.8" />
  </defs>
  <g style="display:inline;opacity:0.25" transform="translate(20.633289,-36.103951)">
    <path style="display:inline;overflow:visible;visibility:visible;fill:url(#linearGradient4-1);fill-opacity:1;fill-rule:evenodd;stroke:#000137;stroke-width:5.126;stroke-miterlimit:4;stroke-dashoffset:0;marker:none;enable-background:accumulate" d="M 108.7,90.1 92.8,99.2 85.8,96.7 79.2,79.7 68.7,80.2 63.9,97.9 57.2,101.1 40.4,93.8 33.4,101.6 l 9.1,15.8 -2.5,7 -17.1,6.7 0.6,10.5 17.6,4.8 3.2,6.7 -7.4,16.7 7.8,7.1 15.8,-9.1 7,2.5 6.6,17 10.6,-0.6 4.7,-17.7 6.7,-3.2 16.8,7.4 7.1,-7.8 -9.1,-15.8 2.4,-7.1 17,-6.6 -0.5,-10.6 -17.7,-4.7 -3.2,-6.7 7.3,-16.8 z m -23.7,26 3.3,1.9 2.8,2.6 2.3,3 1.6,3.4 1,3.7 0.2,3.7 -0.5,3.7 -1.2,3.6 -2,3.3 -2.5,2.8 -3,2.3 -3.4,1.6 -3.7,1 -3.8,0.2 -3.7,-0.5 -3.6,-1.2 -3.3,-2 -2.8,-2.5 -2.3,-3 -1.6,-3.4 -0.9,-3.7 -0.2,-3.8 0.5,-3.7 1.2,-3.6 1.9,-3.2 2.5,-2.8 3,-2.3 3.4,-1.6 3.7,-0.9 3.7,-0.2 3.7,0.5 3.6,1.2 z" />
    <path style="display:inline;overflow:visible;visibility:visible;stroke:#729fcf;stroke-width:5.12572;stroke-miterlimit:4;stroke-dashoffset:0;marker:none;enable-background:accumulate" d="m 108.1,96.3 -14.8,8.5 -11.1,-4 -6.5,-15.7 -3.1,0.2 -4.5,16.5 -10.9,5 -15.4,-6.7 -2.1,2.4 8.5,15 -4.3,10.9 -15.6,6.2 0.2,3.3 16.4,4.5 5.1,10.9 -6.8,15.4 2.3,2 14.6,-8.3 11.8,4.1 5.8,15.6 3.1,0 4.6,-16.4 10.7,-5.3 16.1,6.9 1.9,-2.1 -8.5,-14.6 3.7,-11.4 16,-6.4 -0.1,-3.3 -16.2,-4.2 -5.4,-11 6.8,-15.8 z" />
    <circle style="display:inline;stroke:#729fcf;stroke-width:5.12572;stroke-miterlimit:4;stroke-dashoffset:6;" cx="76.7" cy="133.4" r="24.6" />
  </g>
  <path d="M 85.3,45.1 127.4,110 Z" style="fill:url(#linearGradient3-3);stroke:#000137;stroke-width:11.5;" />
  <path style="stroke:#000137;stroke-width:5.125;" d="m 37.2,136 c 0.7,2.8 2,8.3 2.8,11.1 0.4,1.7 1.9,2.2 4.1,1.6 l 26.4,-6.6 c 1.6,-0.4 2.3,-1.8 1.7,-4.2 l -2.5,-10" />
  <path style="fill:url(#linearGradient3-1);stroke:#000137;stroke-width:5.125;" d="M 74,53.6 3.2,138.3 v 6.2 l 34,-8.5 c 0.7,2.8 2,8.3 2.8,11.1 0.4,1.7 1.9,2.2 4.1,1.6 l 26.4,-6.6 c 1.6,-0.4 2.3,-1.8 1.7,-4.2 l -2.5,-10 45.1,-11.3 a 2.6,2.6 0 0 0 1.5,-3.9 L 78.3,53.9 a 2.7,2.7 0 0 0 -4.3,-0.3 z m -9.4,75.5 2.1,8.4 -22.3,5.6 -2.1,-8.4 z" />
  <path style="stroke:#729fcf;stroke-width:3;" d="m 76,55.3 -67,80.1 -0.5,2.1 1.1,1.7 2.8,0.3 101.7,-25.4 z" />
  <path d="m 39.1,132.8 3.4,13.5 27.4,-6.8 -3.4,-13.5 z" style="stroke:#729fcf;stroke-width:3;" />
  <path d="m 85.3,45.1 42,64.9 z" style="fill:url(#linearGradient37-2);stroke:#729fcf;stroke-width:5.125;" />
  <path d="m 141.1,55.1 -14.7,9.5 z" style="fill:url(#linearGradient3-4);stroke:#000137;stroke-width:11.5;" />
  <path d="m 141.1,55.1 -14.7,9.5 z" style="fill:url(#linearGradient3-5);stroke:#729fcf;stroke-width:5.125;" />
  <path d="m 146.8,86.2 -17.1,-3.7 z" style="fill:url(#linearGradient3-6);stroke:#000137;stroke-width:11.5;" />
  <path d="m 146.8,86.2 -17.1,-3.7 z" style="fill:url(#linearGradient3-7);stroke:#729fcf;stroke-width:5.125;" />
  <path d="M 115,37.1 111.3,54.2 Z" style="fill:url(#linearGradient3-8);stroke:#000137;stroke-width:11.5;" />
  <path d="M 115,37.1 111.3,54.2 Z" style="fill:url(#linearGradient3-9);stroke:#729fcf;stroke-width:5.125;" />
  <path style="display:inline;overflow:visible;visibility:visible;fill:url(#linearGradient2-1);fill-opacity:1;fill-rule:evenodd;stroke:#280000;stroke-width:5.12572;stroke-linecap:butt;stroke-linejoin:miter;stroke-miterlimit:4;stroke-dashoffset:0;marker:none;enable-background:accumulate" d="m 2.6,2.6 0,148.6 H 33.3 V 89.7 H 64.1 V 58.9 H 33.3 V 33.3 H 84.6 V 2.6 Z" />
  <path style="display:inline;overflow:visible;visibility:visible;stroke:#ef2929;stroke-width:5.12572;stroke-linecap:butt;stroke-linejoin:miter;stroke-miterlimit:4;stroke-dashoffset:0;marker:none;enable-background:accumulate" d="M 7.7,7.7 V 146.1 H 28.2 V 84.6 H 58.9 V 64.1 H 28.2 V 28.2 H 79.4 V 7.7 Z" />
</svg>