<?xml version="1.0" encoding="UTF-8" standalone="no"?>
<!-- Created with Inkscape (http://www.inkscape.org/) -->

<svg
   width="153.77098mm"
   height="153.77127mm"
   viewBox="0 0 153.77098 153.77127"
   version="1.1"
   id="svg1"
   xml:space="preserve"
   xmlns:xlink="http://www.w3.org/1999/xlink"
   xmlns="http://www.w3.org/2000/svg"
   xmlns:svg="http://www.w3.org/2000/svg"><defs
     id="defs1"><linearGradient
       id="linearGradient37533"><stop
         style="stop-color:#204a87;stop-opacity:1;"
         offset="0"
         id="stop37533" /><stop
         style="stop-color:#729fcf;stop-opacity:1;"
         offset="1"
         id="stop37534" /></linearGradient><linearGradient
       id="linearGradient3864-9"><stop
         style="stop-color:#204a87;stop-opacity:1"
         offset="0"
         id="stop3866-1" /><stop
         style="stop-color:#729fcf;stop-opacity:1"
         offset="1"
         id="stop3868-1" /></linearGradient><linearGradient
       id="linearGradient3682-0"><stop
         id="stop3684-0"
         offset="0"
         style="stop-color:#a40000;stop-opacity:1" /><stop
         id="stop3686-0"
         offset="1"
         style="stop-color:#ef2929;stop-opacity:1" /></linearGradient><linearGradient
       xlink:href="#linearGradient3682-0"
       id="linearGradient3806"
       x1="-206.69949"
       y1="68.841812"
       x2="-211.40184"
       y2="7.7114096"
       gradientUnits="userSpaceOnUse"
       gradientTransform="matrix(2.1800611,0,0,2.1800611,455.61273,29.543982)" /><linearGradient
       xlink:href="#linearGradient3864-9"
       id="linearGradient3808"
       x1="-146.74467"
       y1="58.261547"
       x2="-157.32494"
       y2="26.520763"
       gradientUnits="userSpaceOnUse"
       gradientTransform="matrix(2.2006614,0,0,2.2006612,411.34011,37.666966)" /><linearGradient
       xlink:href="#linearGradient37533"
       id="linearGradient37534"
       x1="82.550514"
       y1="180.59001"
       x2="174.4375"
       y2="120.80078"
       gradientUnits="userSpaceOnUse" /><linearGradient
       xlink:href="#linearGradient37533"
       id="linearGradient37535"
       gradientUnits="userSpaceOnUse"
       x1="82.550514"
       y1="180.59001"
       x2="174.4375"
       y2="120.80078"
       gradientTransform="translate(-63.227418,-27.637284)" /><linearGradient
       xlink:href="#linearGradient37533"
       id="linearGradient37536"
       gradientUnits="userSpaceOnUse"
       gradientTransform="translate(-63.227418,-27.637284)"
       x1="82.550514"
       y1="180.59001"
       x2="174.4375"
       y2="120.80078" /><linearGradient
       xlink:href="#linearGradient37533"
       id="linearGradient37537"
       gradientUnits="userSpaceOnUse"
       gradientTransform="rotate(90,178.5195,65.477284)"
       x1="82.550514"
       y1="180.59001"
       x2="174.4375"
       y2="120.80078" /><linearGradient
       xlink:href="#linearGradient37533"
       id="linearGradient37538"
       gradientUnits="userSpaceOnUse"
       gradientTransform="rotate(90,178.5195,65.477284)"
       x1="82.550514"
       y1="180.59001"
       x2="174.4375"
       y2="120.80078" /><linearGradient
       xlink:href="#linearGradient37533"
       id="linearGradient37539"
       gradientUnits="userSpaceOnUse"
       gradientTransform="rotate(135,160.92057,90.15225)"
       x1="82.550514"
       y1="180.59001"
       x2="174.4375"
       y2="120.80078" /><linearGradient
       xlink:href="#linearGradient37533"
       id="linearGradient37540"
       gradientUnits="userSpaceOnUse"
       gradientTransform="rotate(135,160.92057,90.15225)"
       x1="82.550514"
       y1="180.59001"
       x2="174.4375"
       y2="120.80078" /><linearGradient
       xlink:href="#linearGradient37533"
       id="linearGradient37541"
       gradientUnits="userSpaceOnUse"
       gradientTransform="rotate(45,221.00704,5.9066498)"
       x1="82.550514"
       y1="180.59001"
       x2="174.4375"
       y2="120.80078" /><linearGradient
       xlink:href="#linearGradient37533"
       id="linearGradient37542"
       gradientUnits="userSpaceOnUse"
       gradientTransform="rotate(45,221.00704,5.9066498)"
       x1="82.550514"
       y1="180.59001"
       x2="174.4375"
       y2="120.80078" /></defs><g
     id="layer1"><g
       id="g37542"
       style="display:inline;opacity:0.25"
       transform="translate(20.633289,-36.103951)"><path
         style="display:inline;overflow:visible;visibility:visible;fill:url(#linearGradient3808);fill-opacity:1;fill-rule:evenodd;stroke:#000137;stroke-width:5.126;stroke-linecap:round;stroke-linejoin:round;stroke-miterlimit:4;stroke-dasharray:none;stroke-dashoffset:0;stroke-opacity:1;marker:none;enable-background:accumulate"
         d="M 108.66293,90.068095 92.822005,99.156606 85.826777,96.729104 79.152757,79.672333 68.65415,80.22443 63.865449,97.862127 57.163416,101.0716 40.447383,93.759272 33.386974,101.605 l 9.088522,15.84099 -2.483634,6.97463 -17.056734,6.6741 0.607777,10.51906 17.637742,4.78868 3.209464,6.70205 -7.368453,16.69548 7.845758,7.0605 15.84091,-9.08851 7.03083,2.50411 6.617946,17.03614 10.57515,-0.58697 4.732606,-17.65822 6.702052,-3.20948 16.75162,7.38906 7.06041,-7.84588 -9.08851,-15.84083 2.448,-7.05128 17.03627,-6.61803 -0.53121,-10.55462 -17.65822,-4.73265 -3.20948,-6.70198 7.33288,-16.772205 z m -23.724875,25.977235 3.251795,1.88672 2.817341,2.55439 2.255533,3.04836 1.622534,3.38935 0.954006,3.6536 0.158093,3.74438 -0.540788,3.74339 -1.234226,3.55361 -1.963317,3.28743 -2.477814,2.78175 -3.048421,2.25554 -3.389302,1.62248 -3.65363,0.95412 -3.764812,0.21402 -3.743405,-0.54049 -3.553675,-1.23426 -3.2874,-1.96332 -2.761289,-2.53394 -2.275961,-2.9923 -1.622577,-3.38925 -0.933453,-3.70977 -0.21407,-3.7648 0.540788,-3.74338 1.234266,-3.55375 1.942826,-3.23125 2.498328,-2.83783 3.04838,-2.25554 3.389296,-1.62255 3.709701,-0.93377 3.744343,-0.15805 3.743383,0.54049 3.553689,1.23426 z"
         id="path3659-5" /><path
         style="display:inline;overflow:visible;visibility:visible;fill:none;stroke:#729fcf;stroke-width:5.12572;stroke-linecap:round;stroke-linejoin:round;stroke-miterlimit:4;stroke-dasharray:none;stroke-dashoffset:0;stroke-opacity:1;marker:none;enable-background:accumulate"
         d="m 108.09524,96.263096 -14.785293,8.470034 -11.147855,-4.0086 -6.491459,-15.720573 -3.137436,0.169398 -4.515952,16.534495 -10.88256,4.96308 -15.412337,-6.698286 -2.063405,2.362086 8.511262,14.95013 -4.265243,10.92326 -15.555827,6.20316 0.179202,3.33925 16.410998,4.49737 5.086714,10.88263 -6.790259,15.39382 2.279693,1.98096 14.620581,-8.34641 11.756656,4.11901 5.781719,15.61961 3.142905,-0.0388 4.5702,-16.42948 10.676632,-5.3339 16.103484,6.89125 1.93988,-2.07382 -8.51124,-14.57943 3.6564,-11.44566 15.99035,-6.35833 -0.10983,-3.28907 -16.22361,-4.15837 -5.37503,-11.0061 6.79926,-15.751348 z"
         id="path3659-5-6" /><circle
         style="fill:none;stroke:#729fcf;stroke-width:5.12572;stroke-linecap:round;stroke-linejoin:round;stroke-miterlimit:4;stroke-dasharray:none;stroke-dashoffset:6;stroke-opacity:1"
         id="path3898"
         cx="76.718544"
         cy="133.3732"
         r="24.594162" /></g><path
       d="M 85.335359,45.107661 127.37156,110.00603 Z"
       style="fill:url(#linearGradient37536);stroke:#000137;stroke-width:11.532;stroke-linecap:round;stroke-linejoin:round;stroke-dasharray:none;stroke-opacity:1"
       id="path1-4" /><path
       id="path1"
       style="fill:none;stroke:#000137;stroke-width:5.125;stroke-linecap:round;stroke-linejoin:round;stroke-dasharray:none;stroke-opacity:1"
       d="m 37.157109,136.01081 c 0.73154,2.82411 2.0295,8.2557 2.82151,11.05083 0.44654,1.66651 1.93227,2.18924 4.11683,1.60389 l 26.41646,-6.58998 c 1.62159,-0.4345 2.32616,-1.77901 1.68354,-4.17731 l -2.49562,-10.00573" /><path
       id="path1-9"
       style="fill:url(#linearGradient37534);stroke:#000137;stroke-width:3;stroke-linecap:round;stroke-linejoin:round;stroke-dasharray:none;stroke-opacity:1"
       d="M 153.3502,89.738825 82.550517,174.3568 v 6.23321 l 33.973633,-8.47545 c 0.73154,2.82411 2.02953,8.25587 2.82154,11.051 0.44654,1.66651 1.93198,2.18939 4.11654,1.60404 l 26.41648,-6.59029 c 1.62159,-0.4345 2.32624,-1.77871 1.68362,-4.17701 l -2.49546,-10.00559 45.13067,-11.25881 a 2.5845917,2.5845917 111.53009 0 0 1.54368,-3.91284 L 157.63928,90.000671 a 2.6702185,2.6702185 3.493535 0 0 -4.28908,-0.261846 z m -9.41583,75.537905 2.09703,8.41086 -22.25394,5.55057 -2.09703,-8.40983 z"
       transform="translate(-79.367001,-36.103951)" /><path
       id="path37532"
       style="fill:none;stroke:#729fcf;stroke-width:3;stroke-linecap:round;stroke-linejoin:round;stroke-dasharray:none;stroke-opacity:1"
       d="m 76.033309,55.30646 -66.9862476,80.06029 -0.549945,2.08485 1.084574,1.74949 2.8144776,0.2599 101.710602,-25.37336 z" /><path
       d="m 39.105909,132.79797 3.37866,13.54357 27.38638,-6.83197 -3.37867,-13.54362 z"
       style="fill:none;stroke:#729fcf;stroke-width:3;stroke-linecap:round;stroke-linejoin:round;stroke-dasharray:none;stroke-opacity:1"
       id="path1-0" /><path
       d="m 85.33536,45.107661 42.0362,64.898369 z"
       style="fill:url(#linearGradient37535);stroke:#729fcf;stroke-width:5.125;stroke-linecap:round;stroke-linejoin:round;stroke-dasharray:none;stroke-opacity:1"
       id="path1-06" /><path
       d="m 141.07087,55.069559 -14.66967,9.5019 z"
       style="fill:url(#linearGradient37537);stroke:#000137;stroke-width:11.532;stroke-linecap:round;stroke-linejoin:round;stroke-dasharray:none;stroke-opacity:1"
       id="path1-4-7" /><path
       d="m 141.07087,55.069559 -14.66967,9.5019 z"
       style="fill:url(#linearGradient37538);stroke:#729fcf;stroke-width:5.125;stroke-linecap:round;stroke-linejoin:round;stroke-dasharray:none;stroke-opacity:1"
       id="path1-06-4" /><path
       d="m 146.80329,86.204849 -17.09188,-3.65417 z"
       style="fill:url(#linearGradient37539);stroke:#000137;stroke-width:11.532;stroke-linecap:round;stroke-linejoin:round;stroke-dasharray:none;stroke-opacity:1"
       id="path1-4-7-4" /><path
       d="m 146.80329,86.204849 -17.09188,-3.65417 z"
       style="fill:url(#linearGradient37540);stroke:#729fcf;stroke-width:5.125;stroke-linecap:round;stroke-linejoin:round;stroke-dasharray:none;stroke-opacity:1"
       id="path1-06-4-3" /><path
       d="M 115.00146,37.107018 111.3473,54.198899 Z"
       style="fill:url(#linearGradient37541);stroke:#000137;stroke-width:11.532;stroke-linecap:round;stroke-linejoin:round;stroke-dasharray:none;stroke-opacity:1"
       id="path1-4-7-43" /><path
       d="M 115.00146,37.107018 111.3473,54.198899 Z"
       style="fill:url(#linearGradient37542);stroke:#729fcf;stroke-width:5.125;stroke-linecap:round;stroke-linejoin:round;stroke-dasharray:none;stroke-opacity:1"
       id="path1-06-4-1" /><g
       id="g37543"
       transform="translate(20.633289,-36.103951)"><path
         style="display:inline;overflow:visible;visibility:visible;fill:url(#linearGradient3806);fill-opacity:1;fill-rule:evenodd;stroke:#280000;stroke-width:5.12572;stroke-linecap:butt;stroke-linejoin:miter;stroke-miterlimit:4;stroke-dasharray:none;stroke-dashoffset:0;stroke-opacity:1;marker:none;enable-background:accumulate"
         d="m -18.070429,38.666811 2.1e-5,148.645069 H 12.683738 V 125.80357 H 43.437883 V 95.0494 H 12.683738 V 69.42098 H 63.940661 V 38.666811 Z"
         id="rect3663-8" /><path
         style="display:inline;overflow:visible;visibility:visible;fill:none;stroke:#ef2929;stroke-width:5.12572;stroke-linecap:butt;stroke-linejoin:miter;stroke-miterlimit:4;stroke-dasharray:none;stroke-dashoffset:0;stroke-opacity:1;marker:none;enable-background:accumulate"
         d="M -12.944735,43.792525 V 182.18623 H 7.5580432 v -61.5083 H 38.312187 V 100.17512 H 7.5580432 V 64.29523 H 58.814967 V 43.792525 Z"
         id="rect3663-8-3" /></g></g></svg>
