<?xml version="1.0" encoding="utf-8"?>
<svg
  xmlns="http://www.w3.org/2000/svg"
  version="1.1"
  id="kanardia"
  viewBox="0 0 200 40"
  fill="currentColor"
  stroke="none">
  <path
    d="M 24.4,37.7 0,23.9 17.3,8.5 l 2.9,2.9 -7.2,12.2 14.9,12.6 z"
    style="fill:#c30a1b;" />
  <path
    d="M 26.9,23.2 25,21.1 31.2,10.9 24.7,0 h 7.1 l 11.6,10.8 z"
    style="fill:#f18700;" />
  <path
    d="m 0.5,24.2 3.4,3.6 0.8,-1.3 z" />
  <path
    d="m 151,20.6 c 0,0 -1.3,0.2 -1.9,0.3 -0.5,0.1 -1.1,0.3 -1.6,0.5 -0.5,0.2 -1,0.5 -1.5,0.8 -0.6,0.5 -1.6,1.7 -1.6,1.7 v -2.8 h -3.9 v 16.6 h 4.1 v -9.6 c 0,-1 0.1,-1.2 0.5,-1.7 0.3,-0.4 0.7,-0.6 1.1,-0.7 0.7,-0.3 1.4,-0.2 2.2,-0.3 0.9,-0.1 1.7,-0.1 2.6,-0.1 z" />
  <path
    d="m 109.3,20.6 c -0.6,0 -1.2,0.1 -1.8,0.2 -0.8,0.1 -1.7,0.4 -2.4,0.8 -1,0.6 -1.7,1.5 -2.5,2.3 v -2.8 h -4.1 v 16.6 h 4.3 v -10.3 c 0,-0.7 0.4,-1.5 1,-2 0.5,-0.5 1.2,-0.7 1.8,-0.9 0.7,-0.2 1.4,-0.3 2.1,-0.2 0.6,0.1 1.3,0.2 1.8,0.6 0.4,0.3 1,0.7 1,1.3 v 11.5 h 4.2 v -13.5 c 0,-1.2 -2,-3 -3.5,-3.4 -0.6,-0.2 -1.2,-0.2 -1.8,-0.2 z" />
  <path
    d="m 178.9,20.4 -4.3,0.7 v 16.6 h 4.3 z" />
  <path
    d="m 85.5,20.4 c -1,0 -2,0.2 -2.9,0.5 -0.8,0.3 -1.6,0.6 -2.2,1.1 -0.8,0.6 -1.5,1.3 -2,2.1 -0.4,0.6 -0.8,1.4 -1,2.1 -0.3,0.7 -0.5,1.4 -0.6,2.2 -0.1,1.2 0,2.5 0.2,3.8 0.2,0.9 0.5,1.8 1,2.6 0.6,0.8 1.3,1.6 2.1,2.1 0.6,0.5 1.4,0.8 2.1,1 0.6,0.2 1.3,0.4 2,0.4 1,0.1 2,0 3,-0.2 1.1,-0.2 3.1,-0.9 3.1,-0.9 v 1.2 l 3.8,-0.8 v -16.6 l -4.3,0.5 c 0,0 -1.5,-0.7 -2.2,-0.9 -0.7,-0.2 -1.3,-0.3 -2,-0.3 z m 0.5,3.1 c 0.6,0 1.2,0.1 1.8,0.3 0.6,0.2 1.7,0.8 1.7,0.8 v 9.2 c 0,0 -1.5,0.9 -2.4,1.1 -0.9,0.2 -1.8,0.2 -2.7,0 -0.5,-0.1 -1,-0.3 -1.4,-0.6 -0.6,-0.4 -1.1,-1 -1.4,-1.6 -0.3,-0.5 -0.4,-1.1 -0.5,-1.7 -0.1,-0.8 -0.1,-1.7 0,-2.5 0.1,-0.8 0.3,-1.6 0.7,-2.3 0.4,-0.7 0.9,-1.4 1.6,-1.9 0.6,-0.4 1.3,-0.7 2,-0.8 0.2,0 0.4,0 0.6,0 z" />
  <path
    d="m 176.6,12.2 a 2.6,2.6 0 0 0 -2.6,2.6 2.6,2.6 0 0 0 2.6,2.6 2.6,2.6 0 0 0 2.6,-2.6 2.6,2.6 0 0 0 -2.6,-2.6 z" />
  <path
    d="m 54.3,10.9 v 26.8 h 4.5 v -12.6 l 12.2,12.6 h 5.7 L 63.4,23.7 75.6,10.9 h -5.4 l -11.5,12 v -12 z" />
  <path
    d="m 43.4,10.8 -4.4,3.3 1.4,2.2 z" />
  <path
    d="m 190.1,38.3 c -0.7,0 -1.3,-0.2 -2,-0.4 -0.7,-0.3 -1.5,-0.6 -2.1,-1 -0.8,-0.6 -1.6,-1.3 -2.1,-2.1 -0.5,-0.8 -0.8,-1.7 -1,-2.6 -0.3,-1.2 -0.3,-2.5 -0.2,-3.8 0.1,-0.7 0.3,-1.5 0.6,-2.2 0.3,-0.7 0.6,-1.5 1,-2.1 0.6,-0.8 1.2,-1.5 2,-2.1 0.7,-0.5 1.4,-0.9 2.2,-1.1 0.9,-0.3 1.9,-0.5 2.9,-0.5 0.7,0 1.4,0.1 2,0.3 0.8,0.2 2.2,0.9 2.2,0.9 L 200,21.1 v 16.6 l -3.8,0.8 v -1.2 c 0,0 -2,0.7 -3.1,0.9 -1,0.2 -2,0.3 -3,0.2 z m 3,-3.4 c 0.9,-0.2 2.4,-1.1 2.4,-1.1 v -9.2 c 0,0 -1.1,-0.6 -1.7,-0.8 -0.8,-0.2 -1.6,-0.4 -2.4,-0.2 -0.7,0.1 -1.4,0.4 -2,0.8 -0.7,0.5 -1.2,1.2 -1.6,1.9 -0.4,0.7 -0.6,1.5 -0.7,2.3 -0.1,0.8 -0.1,1.7 0,2.5 0.1,0.6 0.2,1.2 0.5,1.7 0.3,0.6 0.9,1.2 1.4,1.6 0.4,0.3 0.9,0.5 1.4,0.6 0.9,0.2 1.8,0.2 2.7,0 z" />
  <path
    d="m 125.5,38.3 c -0.7,0 -1.3,-0.2 -2,-0.4 -0.7,-0.3 -1.5,-0.6 -2.1,-1 -0.8,-0.6 -1.6,-1.3 -2.1,-2.1 -0.5,-0.8 -0.8,-1.7 -1,-2.6 -0.3,-1.2 -0.3,-2.5 -0.2,-3.8 0.1,-0.7 0.3,-1.5 0.6,-2.2 0.3,-0.7 0.6,-1.5 1,-2.1 0.6,-0.8 1.2,-1.5 2,-2.1 0.7,-0.5 1.4,-0.9 2.2,-1.1 0.9,-0.3 1.9,-0.5 2.9,-0.5 0.7,0 1.4,0.1 2,0.3 0.8,0.2 2.2,0.9 2.2,0.9 l 4.3,-0.5 v 16.6 l -3.8,0.8 v -1.2 c 0,0 -2,0.7 -3.1,0.9 -1,0.2 -2,0.3 -3,0.2 z m 3,-3.4 c 0.9,-0.2 2.4,-1.1 2.4,-1.1 v -9.2 c 0,0 -1.1,-0.6 -1.7,-0.8 -0.8,-0.2 -1.6,-0.4 -2.4,-0.2 -0.7,0.1 -1.4,0.4 -2,0.8 -0.7,0.5 -1.2,1.2 -1.6,1.9 -0.4,0.7 -0.6,1.5 -0.7,2.3 -0.1,0.8 -0.1,1.7 0,2.5 0.1,0.6 0.2,1.2 0.5,1.7 0.3,0.6 0.9,1.2 1.4,1.6 0.4,0.3 0.9,0.5 1.4,0.6 0.9,0.2 1.8,0.2 2.7,0 z" />
  <path
    d="m 161.1,20.4 c -1,0 -2,0.2 -2.9,0.5 -0.8,0.3 -1.6,0.6 -2.2,1.1 -0.8,0.6 -1.5,1.3 -2,2.1 -0.4,0.6 -0.8,1.4 -1,2.1 -0.3,0.7 -0.5,1.4 -0.6,2.2 -0.1,1.2 0,2.5 0.2,3.8 0.2,0.9 0.5,1.8 1,2.6 0.6,0.8 1.3,1.6 2.1,2.1 0.6,0.5 1.4,0.8 2.1,1 0.6,0.2 1.3,0.4 2,0.4 1,0.1 2,0 3,-0.2 1.1,-0.2 3.1,-0.9 3.1,-0.9 v 1.2 l 3.8,-0.8 v -27.1 l -4.3,0.8 0.1,10.2 c 0,0 -1.5,-0.7 -2.2,-0.9 -0.7,-0.2 -1.3,-0.3 -2,-0.3 z m 0.5,3.1 c 0.6,0 1.2,0.1 1.8,0.3 0.6,0.2 1.7,0.8 1.7,0.8 v 9.2 c 0,0 -1.5,0.9 -2.4,1.1 -0.9,0.2 -1.8,0.2 -2.7,0 -0.5,-0.1 -1,-0.3 -1.4,-0.6 -0.6,-0.4 -1.1,-1 -1.4,-1.6 -0.3,-0.5 -0.4,-1.1 -0.5,-1.7 -0.1,-0.8 -0.1,-1.7 0,-2.5 0.1,-0.8 0.3,-1.6 0.7,-2.3 0.4,-0.7 0.9,-1.4 1.6,-1.9 0.6,-0.4 1.3,-0.7 2,-0.8 0.2,0 0.4,0 0.6,0 z" />
</svg>