<?xml version="1.0" encoding="utf-8"?>
<svg
  xmlns="http://www.w3.org/2000/svg"
  version="1.1"
  id="librespace"
  viewBox="0 0 200 110"
  fill="currentColor"
  stroke="none">
  <path
    d="m 118.3,109.4 c -1.4,-2.8 -8.9,-22.5 -9,-23.9 0.7,-0.2 1.1,0.3 1.6,0.6 2.2,1.6 4.2,3.1 6.4,4.7 0.5,0.4 1,0.8 1.8,0.8 0.7,-0.4 0.8,-1.1 0.8,-1.9 0,-6.1 0,-12.3 0,-18.4 0,-1.8 -0.8,-3 -2.4,-3.8 -1,-0.6 -2.1,-1.1 -3,-2 -0.2,-2.3 -0.4,-4.7 -0.9,-7 -1,-4.9 -2.9,-9.3 -6,-13.2 -1.4,-1.9 -3.1,-3.5 -5.2,-4.9 -1.8,-1.1 -3.5,-1.2 -5.3,0 -2.8,2 -5,4.5 -6.7,7.5 -2.3,4 -3.8,8.4 -4.3,13 -0.2,1.3 -0.2,2.8 -0.4,4 -0.7,1.1 -1.9,1.8 -3,2.3 -2,1 -2.8,2.7 -2.8,4.9 0,5.8 0,11.6 0,17.5 0,0.8 0,1.6 0.7,2.2 0.8,0.1 1.3,-0.4 2,-0.8 2.3,-1.7 4.5,-3.2 6.7,-4.9 0.4,-0.3 0.7,-0.6 1.2,-0.5 -0.2,1.4 -7.8,21.6 -9.1,24.1 C 70,105.6 60.8,98.9 54,89.1 46.9,79 43.2,67.7 43.5,55.4 44.1,39.2 50.2,25.4 62.4,14.5 73,4.8 85.7,0 100.1,0 c 27.6,0 52.2,20.3 55.7,49.5 3.4,28.1 -14.3,52.3 -37.5,59.8 z" />
  <path
    d="m 155.2,88.5 c 3,-5.2 5.1,-10.5 6.5,-15.9 2.7,-0.8 5.5,-1.7 8.1,-2.6 4.2,-1.4 8.2,-3.2 11.8,-6 1.1,-0.9 2.2,-2 2.9,-3.2 1.4,-2.3 1.4,-4.6 0,-6.9 -0.9,-1.4 -2.1,-2.6 -3.4,-3.5 -4.5,-3.2 -9.5,-5.2 -14.7,-6.7 -1.3,-0.4 -2.8,-0.8 -4.2,-1.3 -1.3,-5.5 -3.3,-10.8 -6,-16 2.4,0.5 4.5,0.8 6.4,1.3 6.5,1.6 13,3.4 19,6.3 4.6,2.2 8.8,4.8 12.3,8.5 2.9,3.2 5,6.8 5.7,11.1 1.1,6.4 -0.4,12.1 -4.5,17.2 -3,3.7 -6.7,6.4 -11,8.7 -6.5,3.5 -13.6,5.7 -20.8,7.5 -2.3,0.5 -4.5,1 -6.7,1.6 -0.4,0.1 -0.9,0.1 -1.7,0.1 z" />
  <path
    d="m 43.4,26.3 c -2.8,5.2 -4.7,10.4 -5.9,15.8 -0.8,0.7 -2,0.8 -2.9,1.1 -5.5,1.7 -10.9,3.6 -15.6,6.9 -1.4,1 -2.6,2.2 -3.5,3.6 -1.4,2.3 -1.4,4.6 0,6.9 1.1,1.9 2.9,3.2 4.7,4.5 4.6,3 9.7,4.8 14.9,6.3 0.9,0.3 2,0.4 2.9,1 1.3,5.5 3.6,10.7 6.6,16 C 42.3,88.1 40.3,87.8 38.4,87.3 32.4,85.9 26.4,84.2 20.7,81.8 16,79.8 11.6,77.3 7.7,73.9 4,70.5 1.3,66.3 0.4,61.3 -0.8,55.2 0.7,49.7 4.3,44.6 c 2.7,-3.7 6.3,-6.5 10.4,-8.7 5.5,-3.1 11.4,-5.2 17.4,-6.9 3.6,-1 7.3,-2 11.5,-2.7 z" />
</svg>