<svg
  xmlns="http://www.w3.org/2000/svg"
  viewBox="0 0 1960 1120"
  version="1.1"
  id="zones"
  stroke-width="2"
  stroke-linecap="round"
  stroke-linejoin="round"
  stroke-miterlimit="100"
  font-size="21px"
  font-weight="bold">
  <rect style="fill:var(--entry);" width="1920" height="1080" x="20.5" y="20.5" ry="0.5" />
  <rect style="fill:#868e96;stroke:#f8f9fa;opacity:0.5" width="1920" height="32" x="20.5" y="20.5" ry="0.2" />
  <rect style="fill:#e67700;stroke:#f8f9fa;opacity:0.5" width="1920" height="26" x="20.5" y="52.5" ry="0.1" />
  <rect style="fill:#82c91e;stroke:#f8f9fa;opacity:0.5" width="1920" height="42" x="20.5" y="78.5" ry="0.2" />
  <rect style="fill:#2f9e44;stroke:#f8f9fa;opacity:0.5" width="1920" height="42" x="20.5" y="120.5" ry="0.2" />
  <rect style="opacity:0.5;fill:#0ca678;stroke:#f8f9fa.00001;" width="48" height="860" x="1892.5" y="162.5" ry="0.5" />
  <rect style="opacity:0.5;fill:#0b7285;stroke:#f8f9fa;" width="48" height="860" x="1844.5" y="162.5" ry="0.5" />
  <rect style="opacity:0.5;fill:#868e96;stroke:#f8f9fa;" width="1920" height="46" x="20.5" y="1054.5" ry="0.5" />
  <rect style="opacity:0.5;fill:#5f3dc4;stroke:#f8f9fa;" width="1920" height="32" x="20.5" y="1022.5" ry="0.4" />
  <rect style="opacity:0.5;fill:#748ffc;stroke:#f8f9fa;" width="318" height="860" x="20.5" y="162.5" ry="0.5" />
  <rect style="opacity:0.5;fill:#9c36b5;stroke:#f8f9fa;" width="318" height="860" x="1526.5" y="162.5" ry="0.5" />
  <rect style="opacity:0.5;fill:#ffd43b;stroke:#f8f9fa;" width="1188" height="34" x="338.5" y="988.5" ry="0.2" />
  <rect style="opacity:0.5;fill:#c92a2a;stroke:#f8f9fa;" width="1188" height="826" x="338.5" y="162.5" ry="0.2" />
  <text style="fill:var(--secondary);stroke:none" x="957" y="44.7">
    <tspan x="957" y="44.7">Title Bar</tspan>
  </text>
  <text style="fill:var(--secondary);stroke:none;" x="953.6" y="73.1">
    <tspan x="953.6" y="73.1">MenuBar</tspan>
  </text>
  <text style="fill:var(--secondary);stroke:none;" x="865.8" y="107.5">
    <tspan x="865.8" y="107.5">Global Function Toolbar</tspan>
  </text>
  <text style="fill:var(--secondary);stroke:none;" x="847.2" y="147.3">
    <tspan x="847.2" y="147.3">Workbench Navigation Bar</tspan>
  </text>
  <text style="fill:var(--secondary);stroke:none;" x="898.3" y="568.5">
    <tspan x="898.3" y="568.5">Main 3D View</tspan>
  </text>
  <text style="fill:var(--secondary);stroke:none;" x="90.6" y="576.7">
    <tspan x="90.6" y="576.7">Left Dock Area</tspan>
  </text>
  <text style="fill:var(--secondary);stroke:none;" x="1594.6" y="566.3">
    <tspan x="1594.6" y="566.3">Right Dock Area</tspan>
  </text>
  <text style="fill:var(--secondary);stroke:none;" x="1858.4" y="409.9">
    <tspan x="1858.4" y="409.9">F</tspan>
    <tspan x="1858.4" y="436.6">u</tspan>
    <tspan x="1858.4" y="463.3">n</tspan>
    <tspan x="1858.4" y="489.9">c</tspan>
    <tspan x="1858.4" y="516.6">t</tspan>
    <tspan x="1858.4" y="543.3">i</tspan>
    <tspan x="1858.4" y="569.9">o</tspan>
    <tspan x="1858.4" y="596.6">n</tspan>
    <tspan x="1858.4" y="623.3" />
    <tspan x="1858.4" y="649.9">B</tspan>
    <tspan x="1858.4" y="676.6">a</tspan>
    <tspan x="1858.4" y="703.3">r</tspan>
    <tspan x="1858.4" y="729.9"> </tspan>
    <tspan x="1858.4" y="756.6">1</tspan>
  </text>
  <text style="fill:var(--secondary);stroke:none;" x="1909.1" y="409.9">
    <tspan x="1909.1" y="409.9">F</tspan>
    <tspan x="1909.1" y="436.6">u</tspan>
    <tspan x="1909.1" y="463.3">n</tspan>
    <tspan x="1909.1" y="489.9">c</tspan>
    <tspan x="1909.1" y="516.6">t</tspan>
    <tspan x="1909.1" y="543.3">i</tspan>
    <tspan x="1909.1" y="569.9">o</tspan>
    <tspan x="1909.1" y="596.6">n</tspan>
    <tspan x="1909.1" y="623.3"/>
    <tspan x="1909.1" y="649.9">B</tspan>
    <tspan x="1909.1" y="676.6">a</tspan>
    <tspan x="1909.1" y="703.3">r</tspan>
    <tspan x="1909.1" y="729.9"> </tspan>
    <tspan x="1909.1" y="756.6">2</tspan>
  </text>
  <text style="fill:var(--secondary);stroke:none;" x="869.7" y="1013.5">
    <tspan x="869.7" y="1013.5">Document Tab Bar</tspan>
  </text>
  <text style="fill:var(--secondary);stroke:none;" x="916.4" y="1046.3">
    <tspan x="916.4" y="1046.3">Status Bar</tspan>
  </text>
  <text style="fill:var(--secondary);stroke:none;" x="816.9" y="1083.3">
    <tspan x="816.9" y="1083.3">Operating System Task Bar</tspan>
  </text>
</svg>