<?xml version="1.0" encoding="UTF-8"?>
<svg
  xmlns="http://www.w3.org/2000/svg"
  version="1.1"
  id="aleph"
  viewBox="0 0 200 200"
  fill="currentColor"
  stroke="none">

  <path
    style="fill:#222222"
    d="M 100,0 4.4,165.5 H 195.6 L 100,0" />
  <path
    style="fill:#c1d82f"
    d="m 100,9.4 22.6,39.1 H 77.4 L 100,9.4"/>
  <path
    style="fill:#222222"
    d="m 100,22.2 11.4,19.7 H 88.6 Z m 0,-4.8 -15.6,27 h 31.2 L 100,17.4"/>
  <path
    style="fill:#c1d82f"
    d="m 12.6,160.7 22.5,-39 22.5,39 h -45"/>
  <path
    style="fill:#222222"
    d="m 35.2,134.7 11.4,19.8 H 23.7 l 11.4,-19.8 z m 0,-4.8 -15.6,27 h 31.1 l -15.5,-27"/>
  <path
    style="fill:#c1d82f"
    d="M 63.1,160.7 37.9,117 74.7,53.2 h 50.6 l 36.7,63.5 -25.4,43.9 H 63.1"/>
  <path
    style="fill:#c1d82f"
    d="m 142.1,160.7 22.6,-39.2 22.7,39.2 h -45.3"/>
  <path
    style="fill:#222222"
    d="m 164.7,134.7 11.4,19.8 h -22.9 l 11.4,-19.8 z m 0,-4.8 -15.6,27 h 31.2 l -15.6,-27"/>
  <path
    style="fill:#222222"
    d="m 100.8,155.5 c -0.3,0.2 -0.6,0.4 -0.9,0.4 -0.3,0 -0.6,-0.1 -0.9,-0.4 -0.3,-0.2 -0.5,-1 -0.9,-1.8 -0.4,-0.9 -0.8,-1.8 -1.4,-2.5 -0.6,-0.6 -1.4,-1 -2.2,-1.1 -0.8,-0.1 -1.6,0.1 -2.4,0.5 -0.8,0.5 -1.5,1.3 -2,2 -0.6,0.7 -1,1.4 -1.3,1.6 -0.3,0.2 -0.7,0.2 -1,0.1 -0.3,-0.1 -0.6,-0.3 -0.8,-0.6 -0.2,-0.3 -0.2,-1.1 -0.4,-2 -0.1,-0.9 -0.3,-2 -0.7,-2.8 -0.5,-0.8 -1.1,-1.3 -1.8,-1.7 -0.7,-0.3 -1.6,-0.4 -2.5,-0.1 -0.9,0.2 -1.8,0.9 -2.5,1.4 -0.7,0.6 -1.4,1.1 -1.7,1.2 -0.3,0.1 -0.7,0 -1,-0.2 -0.3,-0.2 -0.5,-0.4 -0.6,-0.8 -0.1,-0.3 0.1,-1.1 0.2,-2.1 0.1,-0.9 0.3,-2 0,-2.9 -0.2,-0.9 -0.7,-1.6 -1.3,-2.1 -0.6,-0.5 -1.4,-0.8 -2.3,-0.8 -0.9,0 -1.9,0.4 -2.8,0.8 -0.9,0.4 -1.7,0.8 -2,0.8 -0.4,0 -0.7,-0.2 -0.9,-0.4 -0.2,-0.2 -0.4,-0.5 -0.4,-0.9 0,-0.4 0.4,-1.1 0.8,-2 0.4,-0.9 0.8,-1.9 0.8,-2.8 0,-0.9 -0.3,-1.7 -0.7,-2.3 -0.5,-0.6 -1.2,-1.1 -2.1,-1.3 -0.9,-0.2 -2,-0.1 -2.9,0 -0.9,0.1 -1.7,0.3 -2.1,0.2 -0.3,-0.1 -0.6,-0.3 -0.8,-0.6 -0.2,-0.3 -0.2,-0.6 -0.2,-1 0.1,-0.4 0.6,-1 1.2,-1.7 0.6,-0.7 1.2,-1.6 1.4,-2.5 0.2,-0.9 0.2,-1.7 -0.1,-2.5 -0.3,-0.7 -0.9,-1.4 -1.7,-1.8 -0.8,-0.5 -1.8,-0.6 -2.8,-0.7 -0.9,-0.1 -1.7,-0.2 -2,-0.4 -0.3,-0.2 -0.5,-0.5 -0.6,-0.8 -0.1,-0.3 -0.1,-0.7 0.1,-1 0.2,-0.3 0.8,-0.8 1.6,-1.3 0.7,-0.6 1.6,-1.2 2,-2 0.5,-0.8 0.6,-1.6 0.5,-2.4 -0.1,-0.8 -0.5,-1.6 -1.1,-2.2 -0.6,-0.6 -1.6,-1.1 -2.5,-1.4 -0.9,-0.4 -1.6,-0.6 -1.8,-0.9 -0.2,-0.3 -0.4,-0.6 -0.4,-0.9 0,-0.3 0.1,-0.6 0.4,-0.9 0.2,-0.3 1,-0.5 1.9,-0.9 0.9,-0.4 1.8,-0.8 2.5,-1.4 0.6,-0.6 1,-1.4 1.1,-2.2 0.1,-0.8 -0.1,-1.6 -0.5,-2.4 -0.5,-0.8 -1.3,-1.5 -2,-2 -0.7,-0.6 -1.4,-1 -1.6,-1.3 -0.2,-0.3 -0.2,-0.7 -0.1,-1 0.1,-0.3 0.3,-0.6 0.6,-0.8 0.3,-0.2 1.1,-0.2 2,-0.4 0.9,-0.1 2,-0.3 2.8,-0.7 0.8,-0.5 1.3,-1.1 1.7,-1.8 0.3,-0.7 0.4,-1.6 0.1,-2.5 -0.2,-0.9 -0.9,-1.8 -1.4,-2.5 -0.6,-0.7 -1.1,-1.4 -1.2,-1.7 -0.1,-0.4 0,-0.7 0.1,-1 0.2,-0.3 0.4,-0.5 0.8,-0.6 0.3,-0.1 1.1,0.1 2.1,0.2 0.9,0.1 2,0.3 2.9,0 0.9,-0.2 1.6,-0.7 2.1,-1.3 0.5,-0.6 0.8,-1.4 0.8,-2.3 0,-0.9 -0.4,-1.9 -0.8,-2.8 -0.4,-0.9 -0.8,-1.7 -0.8,-2 0,-0.4 0.2,-0.7 0.4,-0.9 0.2,-0.2 0.5,-0.4 0.9,-0.4 0.4,0 1.1,0.4 2,0.8 0.9,0.4 1.9,0.8 2.8,0.8 0.9,0 1.7,-0.3 2.3,-0.7 0.6,-0.5 1.1,-1.2 1.3,-2.1 0.2,-0.9 0.1,-1.9 0,-2.9 -0.1,-0.9 -0.3,-1.7 -0.2,-2.1 0.1,-0.3 0.3,-0.6 0.6,-0.8 0.3,-0.2 0.6,-0.2 1,-0.1 0.4,0.1 1,0.6 1.7,1.2 0.7,0.6 1.6,1.2 2.5,1.5 0.9,0.2 1.7,0.2 2.5,-0.1 0.7,-0.3 1.4,-0.9 1.8,-1.7 0.5,-0.8 0.6,-1.8 0.7,-2.8 0.1,-0.9 0.2,-1.7 0.4,-2 0.2,-0.3 0.5,-0.5 0.8,-0.6 0.3,-0.1 0.7,-0.1 1,0.1 0.3,0.2 0.8,0.8 1.3,1.6 0.6,0.7 1.2,1.6 2,2 0.8,0.5 1.6,0.6 2.4,0.5 0.8,-0.1 1.6,-0.5 2.2,-1.1 0.6,-0.6 1.1,-1.6 1.4,-2.5 0.4,-0.9 0.6,-1.6 0.9,-1.8 0.3,-0.2 0.6,-0.4 0.9,-0.4 0.3,0 0.6,0.1 0.9,0.4 0.3,0.2 0.5,1 0.9,1.8 0.4,0.9 0.8,1.8 1.4,2.5 0.6,0.6 1.4,1 2.2,1.1 0.8,0.1 1.6,-0.1 2.4,-0.5 0.8,-0.5 1.5,-1.3 2,-2 0.6,-0.7 1,-1.4 1.3,-1.6 0.3,-0.2 0.7,-0.2 1,-0.1 0.3,0.1 0.6,0.3 0.8,0.6 0.2,0.3 0.2,1.1 0.4,2 0.1,0.9 0.3,2 0.7,2.8 0.5,0.8 1.1,1.3 1.8,1.7 0.7,0.3 1.6,0.4 2.5,0.1 0.9,-0.2 1.8,-0.9 2.5,-1.4 0.7,-0.6 1.4,-1.1 1.7,-1.2 0.4,-0.1 0.7,0 1,0.2 0.3,0.2 0.5,0.4 0.6,0.8 0.1,0.3 -0.1,1.1 -0.2,2.1 -0.1,0.9 -0.3,2 0,2.9 0.2,0.9 0.7,1.6 1.3,2.1 0.6,0.5 1.4,0.7 2.3,0.8 0.9,0 1.9,-0.4 2.8,-0.8 0.9,-0.4 1.7,-0.8 2,-0.8 0.4,0 0.7,0.2 0.9,0.4 0.2,0.2 0.4,0.5 0.4,0.9 0,0.4 -0.4,1.1 -0.8,2 -0.4,0.9 -0.8,1.9 -0.8,2.8 0,0.9 0.3,1.7 0.7,2.3 0.5,0.6 1.2,1.1 2.1,1.3 0.9,0.2 2,0.1 2.9,0 0.9,-0.1 1.7,-0.3 2.1,-0.2 0.3,0.1 0.6,0.3 0.8,0.6 0.2,0.3 0.2,0.6 0.1,1 -0.1,0.3 -0.6,1 -1.2,1.7 -0.6,0.7 -1.2,1.6 -1.4,2.5 -0.2,0.9 -0.2,1.7 0.1,2.5 0.3,0.7 0.9,1.4 1.6,1.8 0.8,0.5 1.8,0.6 2.8,0.7 0.9,0.1 1.7,0.2 2,0.4 0.3,0.2 0.5,0.5 0.6,0.8 0.1,0.3 0.1,0.7 -0.1,1 -0.2,0.3 -0.8,0.8 -1.6,1.3 -0.7,0.6 -1.6,1.2 -2,2 -0.5,0.8 -0.6,1.6 -0.5,2.4 0.1,0.8 0.5,1.5 1.1,2.2 0.6,0.6 1.6,1.1 2.5,1.4 0.9,0.4 1.6,0.6 1.8,0.9 0.2,0.3 0.4,0.6 0.4,0.9 0,0.3 -0.1,0.6 -0.4,0.9 -0.2,0.3 -1,0.5 -1.8,0.9 -0.9,0.4 -1.8,0.8 -2.5,1.4 -0.6,0.6 -1,1.4 -1.1,2.2 -0.1,0.8 0.1,1.6 0.5,2.4 0.5,0.8 1.3,1.5 2,2 0.7,0.6 1.4,1 1.6,1.3 0.2,0.3 0.2,0.7 0.1,1 -0.1,0.3 -0.3,0.6 -0.6,0.8 -0.3,0.2 -1.1,0.2 -2,0.4 -0.9,0.1 -2,0.3 -2.7,0.7 -0.8,0.5 -1.3,1.1 -1.7,1.8 -0.3,0.7 -0.4,1.6 -0.1,2.5 0.2,0.9 0.9,1.8 1.4,2.5 0.6,0.7 1.1,1.4 1.2,1.7 0.1,0.3 0,0.7 -0.1,1 -0.2,0.3 -0.4,0.5 -0.8,0.6 -0.3,0.1 -1.1,-0.1 -2.1,-0.2 -0.9,-0.1 -2,-0.3 -2.9,0 -0.9,0.2 -1.6,0.7 -2.1,1.3 -0.5,0.6 -0.8,1.4 -0.8,2.3 0,0.9 0.4,1.9 0.8,2.8 0.4,0.9 0.8,1.7 0.8,2 0,0.4 -0.2,0.7 -0.4,0.9 -0.2,0.2 -0.5,0.4 -0.9,0.4 -0.4,0 -1.1,-0.4 -2,-0.8 -0.9,-0.4 -1.9,-0.8 -2.8,-0.8 -0.9,0 -1.7,0.3 -2.3,0.7 -0.6,0.5 -1.1,1.2 -1.3,2.1 -0.2,0.9 -0.1,2 0,2.9 0.1,0.9 0.3,1.7 0.2,2.1 -0.1,0.3 -0.3,0.6 -0.6,0.8 -0.3,0.2 -0.6,0.2 -1,0.2 -0.4,-0.1 -1,-0.6 -1.7,-1.2 -0.7,-0.6 -1.6,-1.2 -2.5,-1.5 -0.9,-0.2 -1.7,-0.2 -2.5,0.1 -0.7,0.3 -1.4,0.9 -1.8,1.7 -0.5,0.8 -0.6,1.8 -0.7,2.8 -0.1,0.9 -0.2,1.7 -0.4,2 -0.2,0.3 -0.5,0.5 -0.8,0.6 -0.3,0.1 -0.7,0.1 -1,-0.1 -0.3,-0.2 -0.8,-0.8 -1.3,-1.6 -0.6,-0.7 -1.2,-1.6 -2,-2 -0.8,-0.5 -1.6,-0.6 -2.4,-0.5 -0.8,0.1 -1.6,0.5 -2.2,1.1 -0.6,0.6 -1.1,1.6 -1.4,2.5 -0.4,0.9 -0.6,1.6 -0.9,1.9" />
  <path
    style="fill:#c1d82f"
    d="m 97.7,70.4 c 0,-1.3 1,-2.3 2.3,-2.3 1.3,0 2.3,1 2.3,2.3 0,1.3 -1,2.3 -2.3,2.3 -1.3,0 -2.3,-1 -2.3,-2.3 z M 71.1,83.3 c -0.9,-0.9 -0.9,-2.3 0,-3.3 0.9,-0.9 2.3,-0.9 3.2,0 0.9,0.9 0.9,2.3 0,3.2 -0.5,0.4 -1,0.7 -1.6,0.7 -0.6,0 -1.2,-0.2 -1.6,-0.7 z m 54.6,0 c -0.9,-0.9 -0.9,-2.3 0,-3.2 0.9,-0.9 2.3,-0.9 3.2,0 0.9,0.9 0.9,2.3 0,3.3 -0.4,0.4 -1,0.7 -1.6,0.7 -0.6,0 -1.2,-0.2 -1.6,-0.7 z m -64.3,28 c -1.3,0 -2.3,-1 -2.3,-2.3 0,-1.3 1,-2.3 2.3,-2.3 1.3,0 2.3,1 2.3,2.3 0,1.3 -1,2.3 -2.3,2.3 z m 74.9,-2.3 c 0,-1.3 1,-2.3 2.3,-2.3 1.3,0 2.3,1 2.3,2.3 v 0 c 0,1.3 -1,2.3 -2.3,2.3 -1.3,0 -2.3,-1 -2.3,-2.3 z m -10.6,28.9 c -0.9,-0.9 -0.9,-2.3 0,-3.2 0.9,-0.9 2.3,-0.9 3.2,0 0.9,0.9 0.9,2.3 0,3.2 -0.5,0.5 -1,0.7 -1.6,0.7 -0.6,0 -1.2,-0.2 -1.6,-0.7 z M 71.1,138 c 0,0 0,0 0,0 0,0 0,0 -0.1,-0.1 v 0 c -0.9,-0.9 -0.9,-2.4 0,-3.3 0.9,-0.9 2.3,-0.9 3.2,0 0,0 0,0 0,0 0,0 0,0 0,0 0.9,0.9 0.9,2.3 0,3.2 -0.5,0.5 -1,0.7 -1.6,0.7 -0.6,0 -1.2,-0.2 -1.6,-0.7 z m 26.6,9.6 c 0,-1.3 1,-2.3 2.3,-2.3 1.3,0 2.3,1 2.3,2.3 0,1.3 -1,2.3 -2.3,2.3 -1.3,0 -2.3,-1 -2.3,-2.3" />
  <path
    style="fill:#ffffff"
    d="m 120.7,91.6 c -0.2,-0.3 -0.4,-0.5 -0.6,-0.8 l 2.8,-2.6 c 0.2,0.3 0.5,0.6 0.7,0.8 z m -3.4,-3.4 1.2,-1.5 1.2,-1.5 c 0.3,0.3 0.6,0.5 0.8,0.7 l -2.5,2.8 c -0.2,-0.2 -0.5,-0.4 -0.7,-0.6 z m 5.7,6.5 c -0.2,-0.3 -0.3,-0.6 -0.5,-0.8 l 3.2,-2.1 c 0.2,0.3 0.4,0.6 0.6,0.9 z m -8.8,-8.8 2,-3.3 c 0.3,0.2 0.6,0.4 0.9,0.6 l -2.1,3.2 c -0.3,-0.2 -0.5,-0.4 -0.8,-0.5 z m 10.6,12.2 c -0.1,-0.3 -0.3,-0.6 -0.4,-0.9 l 3.4,-1.7 c 0.2,0.3 0.3,0.7 0.5,1 z m -14,-14 1.5,-3.5 c 0.3,0.1 0.7,0.3 1,0.5 l -1.6,3.5 c -0.3,-0.1 -0.6,-0.3 -0.9,-0.4 z m 15.3,17.7 c -0.1,-0.3 -0.2,-0.6 -0.3,-0.9 l 3.6,-1.1 c 0.1,0.4 0.2,0.7 0.3,1.1 l -3.7,1 z m -19,-19 1,-3.7 c 0.4,0.1 0.7,0.2 1.1,0.3 l -1.1,3.6 c -0.3,-0.1 -0.6,-0.2 -0.9,-0.3 z m 19.7,22.7 c 0,-0.3 -0.1,-0.6 -0.1,-1 l 3.8,-0.6 c 0.1,0.4 0.1,0.7 0.2,1.1 l -3.8,0.5 z M 103.3,82 l 0.5,-3.8 c 0.4,0 0.7,0.1 1.1,0.2 l -0.6,3.8 c -0.3,-0.1 -0.6,-0.1 -1,-0.1 z m 23.7,27.3 c 0,-0.3 0,-0.6 0,-1 l 3.8,-0.1 c 0,0.4 0,0.7 0,1.1 z M 99.5,81.9 99.4,78.1 c 0.4,0 0.7,0 1.1,0 l -0.1,3.8 c -0.3,0 -0.7,0 -1,0 z m 27.2,31.4 c 0.1,-0.3 0.1,-0.6 0.1,-1 l 3.8,0.5 c 0,0.4 -0.1,0.7 -0.1,1.1 z M 95.6,82.2 95,78.5 c 0.4,-0.1 0.7,-0.1 1.1,-0.2 l 0.5,3.8 c -0.3,0 -0.6,0.1 -1,0.1 z m 34.2,34.9 c -0.1,0.4 -0.2,0.7 -0.3,1.1 l -3.6,-1.1 c 0.1,-0.3 0.2,-0.6 0.3,-0.9 l 3.7,1 m -38,-34.1 -1.2,-3.6 c 0.4,-0.1 0.7,-0.2 1.1,-0.3 l 1,3.7 c -0.3,0.1 -0.6,0.2 -0.9,0.3 z m 32.6,37.5 c 0.1,-0.3 0.3,-0.6 0.4,-0.9 l 3.5,1.5 c -0.1,0.3 -0.3,0.7 -0.5,1 z M 88.3,84.5 86.6,81.1 c 0.3,-0.2 0.7,-0.3 1,-0.5 l 1.5,3.5 c -0.3,0.1 -0.6,0.3 -0.9,0.4 z m 34.3,39.4 c 0.2,-0.3 0.4,-0.5 0.5,-0.8 l 3.3,2 c -0.2,0.3 -0.4,0.6 -0.6,0.9 z M 84.9,86.4 82.8,83.3 c 0.3,-0.2 0.6,-0.4 0.9,-0.6 l 2,3.3 c -0.3,0.2 -0.6,0.3 -0.8,0.5 z m 35.3,40.6 c 0.2,-0.2 0.4,-0.5 0.6,-0.7 l 3,2.4 v 0 c -0.2,0.3 -0.5,0.6 -0.7,0.8 z M 81.8,88.8 79.3,86 c 0.3,-0.3 0.6,-0.5 0.8,-0.7 l 2.5,2.9 c -0.2,0.2 -0.5,0.4 -0.7,0.6 z m 38,43.8 -2.5,-2.9 c 0.2,-0.2 0.5,-0.4 0.7,-0.6 l 2.6,2.8 c -0.3,0.2 -0.6,0.5 -0.8,0.7 z M 76.2,89.1 v 0 c 0.2,-0.3 0.5,-0.6 0.7,-0.8 l 2.8,2.6 c -0.2,0.2 -0.4,0.5 -0.6,0.7 l -0.1,0.1 -1.1,-1 -1.8,-1.5 z m 40,46.1 -2,-3.3 c 0.3,-0.2 0.6,-0.3 0.8,-0.5 l 2.1,3.2 c -0.3,0.2 -0.6,0.4 -0.9,0.6 z M 73.7,92.7 c 0.2,-0.3 0.4,-0.6 0.6,-0.9 l 3.2,2.1 c -0.2,0.3 -0.4,0.5 -0.5,0.8 z m 38.7,44.6 -1.5,-3.5 c 0.3,-0.1 0.6,-0.3 0.9,-0.4 l 1.7,3.4 c -0.3,0.2 -0.7,0.3 -1,0.5 z M 71.6,96.6 c 0.1,-0.3 0.3,-0.7 0.5,-1 l 3.5,1.6 c -0.1,0.3 -0.3,0.6 -0.4,0.9 z m 36.6,42.1 -1,-3.7 c 0.3,-0.1 0.6,-0.2 0.9,-0.3 l 1.1,3.6 c -0.4,0.1 -0.7,0.2 -1.1,0.3 z m -38,-37.9 c 0.1,-0.4 0.2,-0.7 0.3,-1.1 l 3.6,1.1 c -0.1,0.3 -0.2,0.6 -0.3,0.9 z m 33.7,38.8 -0.5,-3.8 c 0.3,0 0.6,-0.1 1,-0.1 l 0.6,3.8 c -0.4,0.1 -0.7,0.1 -1.1,0.2 z M 69.3,105.1 c 0,-0.4 0.1,-0.7 0.2,-1.1 l 3.8,0.6 c 0,0.3 -0.1,0.6 -0.1,1 l -3.8,-0.5 z m 30.2,34.8 0.1,-3.8 c 0.3,0 0.6,0 1,0 l 0.1,3.8 c -0.4,0 -0.7,0 -1.1,0 z M 69.1,109.5 c 0,-0.4 0,-0.7 0,-1.1 l 3.8,0.1 c 0,0.3 0,0.6 0,1 z m 26,30 0.6,-3.8 c 0.3,0.1 0.6,0.1 1,0.1 l -0.5,3.8 c -0.4,0 -0.7,-0.1 -1.1,-0.2 z M 69.5,113.9 c -0.1,-0.4 -0.1,-0.7 -0.2,-1.1 l 3.8,-0.5 c 0,0.3 0.1,0.6 0.1,1 z m 21.3,24.6 1.1,-3.6 c 0.3,0.1 0.6,0.2 0.9,0.3 l -1,3.7 c -0.4,-0.1 -0.7,-0.2 -1.1,-0.3 z M 70.5,118.2 c -0.1,-0.4 -0.2,-0.7 -0.3,-1.1 l 3.7,-1 c 0.1,0.3 0.2,0.6 0.3,0.9 l -3.6,1.1 z m 16.2,18.7 1.6,-3.5 c 0.3,0.1 0.6,0.3 0.9,0.4 l -1.5,3.5 c -0.3,-0.1 -0.7,-0.3 -1,-0.5 z M 72.1,122.3 c -0.2,-0.3 -0.3,-0.7 -0.5,-1 l 3.5,-1.5 c 0.1,0.3 0.3,0.6 0.4,0.9 l -3.5,1.6 z m 10.8,12.4 2.1,-3.2 c 0.3,0.2 0.5,0.4 0.8,0.5 l -2,3.3 c -0.3,-0.2 -0.6,-0.4 -0.9,-0.6 z m -8.6,-8.6 c -0.2,-0.3 -0.4,-0.6 -0.6,-0.9 l 3.3,-2 c 0.2,0.3 0.3,0.5 0.5,0.8 z m 5,5.8 2.5,-2.8 c 0.2,0.2 0.5,0.4 0.7,0.6 l 0.1,0.1 -2.5,2.9 v 0 c -0.3,-0.3 -0.6,-0.5 -0.8,-0.7 z M 77,129.6 c -0.2,-0.3 -0.5,-0.6 -0.7,-0.8 l 2.9,-2.4 c 0.2,0.2 0.4,0.5 0.6,0.7 l -2.8,2.6" />
  <path
    style="fill:#c1d82f"
    d="m 116.8,125.8 c -4.5,4.5 -10.5,7 -16.8,7 -6.4,0 -12.4,-2.5 -16.8,-7 -4.5,-4.5 -7,-10.5 -7,-16.8 0,-6.4 2.5,-12.4 7,-16.8 4.5,-4.5 10.5,-7 16.9,-7 6.4,0 12.4,2.5 16.8,7 4.5,4.5 7,10.5 7,16.8 0,6.4 -2.5,12.4 -7,16.8 z m 0.8,-34.5 C 112.9,86.6 106.6,84 99.9,84 93.2,84 87,86.6 82.2,91.3 c -4.7,4.7 -7.3,11 -7.3,17.7 0,6.7 2.6,12.9 7.3,17.7 4.7,4.7 11,7.3 17.7,7.3 6.7,0 12.9,-2.6 17.7,-7.3 4.7,-4.7 7.3,-11 7.3,-17.7 0,-6.7 -2.6,-13 -7.3,-17.7" />
  <path
    style="fill:#c1d82f"
    d="m 123.4,132.4 c -3.2,3.2 -6.8,5.6 -10.9,7.3 -4,1.6 -8.2,2.4 -12.5,2.4 v 0 c -4.3,0 -8.5,-0.8 -12.5,-2.4 -4.1,-1.7 -7.8,-4.1 -10.9,-7.3 -12.9,-12.9 -12.9,-33.9 0,-46.8 3.2,-3.2 6.8,-5.6 10.9,-7.3 4,-1.6 8.2,-2.4 12.5,-2.4 4.3,0 8.5,0.8 12.5,2.4 4.1,1.7 7.8,4.1 10.9,7.3 3.2,3.2 5.6,6.8 7.3,10.9 1.6,4 2.4,8.2 2.4,12.5 0,4.3 -0.8,8.5 -2.4,12.5 -1.7,4.1 -4.1,7.8 -7.3,10.9 z m 0.8,-47.6 c -6.5,-6.5 -15.1,-10 -24.2,-10 -9.2,0 -17.8,3.6 -24.2,10 -6.5,6.5 -10,15.1 -10,24.2 0,9.2 3.6,17.7 10,24.2 6.5,6.5 15,10 24.2,10 9.2,0 17.8,-3.5 24.2,-10 13.4,-13.4 13.4,-35.1 0,-48.4"/>
  <path
    style="fill:#ffffff"
    d="m 83.4,120.8 c -0.2,-0.3 -0.3,-0.6 -0.4,-0.9 -0.1,-0.3 -0.1,-0.6 -0.1,-0.9 0,-0.3 0,-0.6 0.1,-0.9 0,-0.1 0,-0.1 0.1,-0.2 0,0 0,-0.1 0.1,-0.1 v -0.1 c 0.1,-0.1 0.1,-0.3 0.2,-0.4 0.3,-0.5 0.7,-1 1.3,-1.4 0.1,0 0.1,-0.1 0.2,-0.1 l 0.1,-0.1 h 0.1 c 0.1,0 0.2,-0.1 0.3,-0.1 0.2,-0.1 0.5,-0.2 0.7,-0.4 0.3,-0.1 0.6,-0.2 0.9,-0.2 0.3,0 0.6,-0.1 0.9,-0.1 0.6,0 1.1,0.1 1.7,0.2 0.3,0 0.5,0.1 0.8,0.1 h 0.1 0.1 0.2 c 0.1,0 0.2,0 0.3,0 0.6,0 1.2,-0.1 1.8,-0.4 0,0 0,0 0,0 0,0 0,0 0,0 0.2,-0.1 0.4,-0.2 0.6,-0.3 0.4,-0.2 0.7,-0.5 1,-0.8 v 0 c 0.4,-0.3 0.7,-0.6 0.8,-0.9 0.3,-0.5 0.3,-0.6 0,-0.7 -0.2,0 -0.6,0 -1.3,0.1 -0.1,0 -0.1,0 -0.2,0 0,0 0,0 0,0 -0.6,0.1 -1.1,0.1 -1.6,0.2 -0.6,0.1 -1.2,0.1 -1.8,0.2 -0.3,0 -0.7,0 -1,-0.1 -0.3,-0.1 -0.7,-0.2 -1,-0.4 -0.3,-0.2 -0.6,-0.5 -0.8,-0.8 -0.1,-0.2 -0.2,-0.3 -0.2,-0.5 -0.1,-0.2 -0.1,-0.3 -0.1,-0.4 -0.1,-0.5 -0.3,-1 -0.5,-1.5 -0.2,-0.5 -0.4,-0.9 -0.6,-1.3 -0.2,-0.4 -0.5,-0.8 -0.8,-1 -0.3,-0.2 -0.7,-0.4 -1.1,-0.4 -0.4,0 -0.8,0.1 -1.2,0.2 0,0 -0.1,0 -0.1,0.1 0,0 -0.1,0 -0.1,0.1 -0.1,0.1 -0.2,0.1 -0.2,0.2 -0.2,0.1 -0.3,0.3 -0.4,0.5 -0.2,0.4 -0.3,0.8 -0.2,1.2 0,0.2 0.1,0.4 0.2,0.7 v 0.1 0 c 0,0 0,0 0,0 v 0 c 0,0 0,0 0,0.1 0,0 0,0 0,0.1 0.1,0.1 0.1,0.2 0.2,0.2 0.3,0.3 0.7,0.4 1.1,0.4 0.4,0 0.9,-0.2 1.2,-0.4 0.4,-0.3 0.6,-0.6 0.7,-1.1 0,0 0,-0.1 0,-0.1 0.1,-0.2 0.3,-0.3 0.4,-0.2 0.2,0.1 0.3,0.3 0.2,0.4 0,0.3 -0.1,0.6 -0.3,0.8 -0.2,0.3 -0.4,0.5 -0.6,0.7 -0.5,0.4 -1,0.6 -1.7,0.6 -0.3,0 -0.6,0 -0.9,-0.1 -0.3,-0.1 -0.6,-0.3 -0.8,-0.5 -0.1,-0.1 -0.2,-0.2 -0.3,-0.4 0,0 0,-0.1 -0.1,-0.1 0,0 0,-0.1 -0.1,-0.1 v 0 -0.1 -0.1 c -0.1,-0.3 -0.2,-0.6 -0.2,-0.8 -0.1,-0.6 0,-1.3 0.3,-1.8 0.1,-0.3 0.3,-0.5 0.5,-0.7 0.1,-0.1 0.2,-0.2 0.3,-0.3 0.1,-0.1 0.1,-0.1 0.2,-0.1 0.1,0 0.1,-0.1 0.2,-0.1 0.5,-0.3 1.1,-0.4 1.8,-0.4 0.6,0 1.3,0.2 1.8,0.6 0.5,0.4 0.9,0.9 1.2,1.3 0.3,0.5 0.6,1 0.8,1.4 0.2,0.5 0.5,1 0.7,1.4 0.1,0.3 0.2,0.4 0.3,0.5 0.1,0.1 0.2,0.2 0.3,0.2 0.1,0.1 0.2,0.1 0.4,0.2 0.2,0.1 0.3,0.1 0.5,0.1 0.4,0 0.9,-0.1 1.3,-0.3 0.3,-0.1 0.5,-0.3 0.7,-0.5 0,0 0.5,-0.3 0.9,-0.9 -0.8,-1.5 -1,-3.3 -0.4,-4.8 -0.4,-0.5 -0.7,-0.9 -1.1,-1.4 -0.4,-0.5 -0.7,-1.1 -0.9,-1.8 -0.1,-0.3 -0.2,-0.7 -0.3,-1.1 0,-0.4 0,-0.8 0,-1.2 0,-0.2 0.1,-0.4 0.1,-0.6 0,0 0,-0.1 0.1,-0.1 v 0 c 0,0 0,0 0,0 v 0 L 90.9,98 c 0.1,-0.2 0.2,-0.5 0.3,-0.7 0.2,-0.5 0.3,-1 0.3,-1.5 0,-0.2 0,-0.4 0,-0.5 0,-0.1 0,-0.1 -0.1,-0.2 0,-0.1 -0.1,-0.2 -0.2,-0.3 -0.4,-0.6 -1.2,-1 -1.9,-1.1 -0.7,-0.1 -1.4,0.3 -1.7,1 0,0.1 -0.1,0.2 -0.1,0.3 0,0 0,0.1 0,0.1 l -0.1,0.2 c -0.1,0.2 -0.1,0.4 -0.1,0.5 0,0.4 0.1,0.6 0.4,0.8 0.3,0.2 0.7,0.3 1.1,0.3 0.4,0 0.8,-0.1 1.2,-0.3 v 0 c 0.1,-0.1 0.3,0 0.4,0.1 0.1,0.1 0.1,0.3 0,0.4 0,0 0,0 0,0 -0.2,0.2 -0.5,0.3 -0.7,0.4 -0.3,0.1 -0.5,0.2 -0.8,0.2 -0.6,0.1 -1.1,0 -1.7,-0.3 -0.3,-0.2 -0.5,-0.4 -0.7,-0.7 -0.2,-0.3 -0.3,-0.6 -0.3,-0.9 0,-0.3 0,-0.6 0,-0.9 v -0.2 c 0,-0.1 0,-0.1 0,-0.2 0,-0.1 0.1,-0.3 0.1,-0.4 0.2,-0.5 0.6,-1.1 1.1,-1.4 0.5,-0.3 1.2,-0.5 1.8,-0.5 0.6,0 1.2,0.2 1.7,0.5 0.5,0.3 1,0.6 1.4,1.1 v 0 0.1 c 0.1,0.1 0.1,0.2 0.2,0.4 0.1,0.1 0.2,0.3 0.3,0.5 0.2,0.4 0.2,0.8 0.2,1.1 0,0.7 -0.2,1.3 -0.3,1.8 -0.1,0.3 -0.1,0.6 -0.2,0.9 v 0.2 0.1 0 0 c 0,0 0,0 0,0.1 0,0.1 0,0.2 0,0.3 0,0.3 0.2,0.7 0.4,1 0.2,0.4 0.6,0.7 0.9,1 0.3,0.2 0.6,0.5 0.9,0.7 2.1,-1.4 5,-1.1 7.1,0.7 0.4,-0.2 0.7,-0.5 1,-0.9 0,0 0,0 0,0 0,0 0,0 0,-0.1 0.2,-0.3 0.4,-0.5 0.6,-0.8 0.2,-0.3 0.3,-0.6 0.4,-0.9 0.1,-0.3 0.1,-0.6 0.1,-0.8 0,-0.3 -0.1,-0.5 -0.2,-0.7 -0.1,-0.1 -0.1,-0.2 -0.2,-0.3 l -0.2,-0.2 -0.2,-0.2 c -0.3,-0.3 -0.5,-0.5 -0.8,-0.7 -0.5,-0.5 -1.1,-0.9 -1.7,-1.4 -0.3,-0.2 -0.6,-0.5 -0.9,-0.8 -0.2,-0.2 -0.3,-0.4 -0.4,-0.6 -0.1,-0.1 -0.1,-0.3 -0.1,-0.4 0,0 0,-0.1 0,-0.1 v -0.1 -0.1 -0.1 c 0,-0.5 0,-0.9 0.2,-1.4 0.1,-0.2 0.2,-0.4 0.3,-0.6 0.1,-0.1 0.1,-0.2 0.2,-0.3 0,0 0.1,-0.1 0.1,-0.1 0,0 0.1,-0.1 0.1,-0.1 v 0 c 0,0 0,0 0,0 0,0 0,0 0,0 0,0 0,0 0,0 l 0.1,-0.1 c 0,0 0.1,-0.1 0.1,-0.1 0.1,-0.1 0.2,-0.2 0.2,-0.2 0.2,-0.1 0.4,-0.3 0.6,-0.4 0.4,-0.2 0.9,-0.4 1.3,-0.4 0.5,0 0.9,0.1 1.3,0.3 0.2,0.1 0.4,0.2 0.6,0.3 0.2,0.1 0.4,0.3 0.5,0.4 0.3,0.3 0.6,0.8 0.6,1.2 0.1,0.5 0,0.9 -0.2,1.3 -0.2,0.4 -0.5,0.7 -0.8,1 -0.3,0.3 -0.7,0.5 -1.2,0.5 v 0 c 0,0 0,0 -0.1,0 -0.2,0 -0.3,-0.1 -0.3,-0.3 0,-0.2 0.1,-0.3 0.3,-0.4 0,0 0,0 0,0 0.3,0 0.6,-0.2 0.8,-0.4 0.2,-0.2 0.4,-0.5 0.5,-0.8 0.1,-0.3 0.1,-0.6 0.1,-0.9 -0.1,-0.3 -0.2,-0.5 -0.4,-0.7 -0.1,-0.1 -0.2,-0.2 -0.4,-0.3 -0.2,-0.1 -0.3,-0.2 -0.5,-0.2 -0.3,-0.1 -0.6,-0.2 -0.9,-0.2 -0.3,0 -0.6,0.1 -0.8,0.3 -0.1,0.1 -0.3,0.2 -0.4,0.3 -0.1,0.1 -0.1,0.1 -0.2,0.2 0,0 0,0.1 -0.1,0.1 v 0 c 0,0 0,0 0,0 v 0 0 0.1 l -0.1,0.1 c 0,0.1 -0.1,0.1 -0.1,0.2 -0.1,0.1 -0.1,0.3 -0.2,0.4 -0.1,0.3 -0.1,0.6 -0.1,0.9 v 0.1 0 0 0 0 c 0,0.1 0,0.1 0.1,0.1 0.1,0.1 0.1,0.2 0.2,0.3 0.2,0.2 0.5,0.4 0.8,0.6 0.6,0.4 1.3,0.8 1.9,1.3 0.3,0.2 0.6,0.5 0.9,0.7 l 0.2,0.2 0.2,0.2 c 0.2,0.2 0.3,0.4 0.5,0.6 0.3,0.4 0.4,0.9 0.5,1.4 0,0.5 0,1 -0.1,1.4 -0.1,0.4 -0.2,0.9 -0.3,1.3 -0.1,0.4 -0.3,0.8 -0.4,1.2 -0.1,0.4 -0.3,0.7 -0.5,1 0,0 0,0 0,0 -0.1,0.2 -0.8,2.2 1,0.7 0,0 0.1,-0.1 0.1,-0.1 0,0 0,0 0.1,0 0.1,-0.1 0.3,-0.2 0.4,-0.4 0.5,-0.5 0.9,-1 1.3,-1.5 0.4,-0.5 0.7,-1.1 0.9,-1.7 0.1,-0.1 0.1,-0.3 0.1,-0.4 l 0.1,-0.5 0.2,-1.1 0.2,-1.1 c 0.1,-0.4 0.2,-0.7 0.3,-1.1 0.1,-0.4 0.3,-0.8 0.5,-1.1 0.1,-0.2 0.2,-0.3 0.4,-0.5 0.1,-0.2 0.3,-0.3 0.5,-0.4 0.3,-0.3 0.7,-0.5 1,-0.6 0.2,-0.1 0.4,-0.1 0.6,-0.2 0.2,-0.1 0.4,-0.1 0.6,-0.2 v 0 0 c 0.1,0 0.2,0 0.4,0 0.1,0 0.2,0 0.3,0.1 0.2,0.1 0.4,0.1 0.6,0.2 0.4,0.2 0.8,0.5 1.1,0.8 0.3,0.3 0.5,0.7 0.7,1.1 0.1,0.2 0.1,0.4 0.1,0.6 0,0.2 0,0.5 0,0.7 0,0.5 -0.3,0.9 -0.6,1.2 -0.3,0.3 -0.7,0.5 -1.2,0.6 -0.4,0.1 -0.9,0.1 -1.3,0.1 -0.4,-0.1 -0.9,-0.2 -1.2,-0.5 0,0 0,0 0,0 v 0 c -0.2,-0.2 -0.2,-0.4 0,-0.5 0.1,-0.1 0.4,-0.1 0.5,0 0,0 0,0 0,0 v 0 c 0.2,0.2 0.5,0.3 0.9,0.4 0.3,0 0.7,0 1.1,-0.1 0.3,-0.1 0.7,-0.2 0.9,-0.5 0.2,-0.2 0.4,-0.5 0.4,-0.9 0,-0.2 0,-0.3 0,-0.5 0,-0.2 -0.1,-0.4 -0.1,-0.5 -0.1,-0.3 -0.3,-0.6 -0.5,-0.9 -0.2,-0.3 -0.5,-0.5 -0.8,-0.6 -0.2,-0.1 -0.3,-0.1 -0.5,-0.2 -0.1,0 -0.2,0 -0.3,0 -0.1,0 -0.1,0 -0.2,0 -0.1,0 -0.3,0.1 -0.4,0.1 -0.2,0.1 -0.3,0.1 -0.5,0.2 -0.3,0.1 -0.6,0.3 -0.8,0.5 -0.1,0.1 -0.2,0.2 -0.3,0.3 -0.1,0.1 -0.2,0.3 -0.3,0.4 -0.2,0.3 -0.3,0.6 -0.3,0.9 -0.1,0.7 -0.2,1.4 -0.2,2.1 0,0.4 0,0.7 0,1.1 v 0.6 c 0,0.2 0,0.4 0,0.6 -0.1,0.8 -0.4,1.6 -0.7,2.4 -0.3,0.7 -0.7,1.4 -1.2,2.1 -0.4,0.7 -0.9,1.3 -1.4,1.9 0,0 -0.1,0.1 -0.1,0.1 0.4,-0.2 0.8,-0.5 1.3,-0.7 0.4,-0.2 0.8,-0.3 1.2,-0.5 0.4,-0.1 0.9,-0.2 1.4,-0.3 0.5,0 1.1,0 1.7,0.3 0.3,0.1 0.5,0.3 0.7,0.5 0.2,0.2 0.4,0.5 0.5,0.7 0,0.1 0.1,0.2 0.1,0.3 0,0.1 0.1,0.2 0.1,0.2 l 0.3,0.5 0.5,1 c 0.3,0.7 0.7,1.3 1,1.9 0.2,0.3 0.4,0.6 0.6,0.8 0.1,0.1 0.2,0.2 0.3,0.3 0.1,0 0.1,0.1 0.2,0.1 0.1,0 0.1,0 0.2,0.1 0.3,0.1 0.6,0.1 0.9,0 0.2,0 0.3,-0.1 0.5,-0.1 0.1,0 0.2,-0.1 0.2,-0.1 h 0.1 0.1 0.1 v 0 c 0,0 0.1,0 0.1,-0.1 0,0 0.1,0 0.1,-0.1 0.1,0 0.1,-0.1 0.2,-0.1 0.1,-0.1 0.2,-0.2 0.3,-0.3 0.2,-0.2 0.3,-0.5 0.4,-0.8 0.1,-0.3 0,-0.6 0,-0.9 0,-0.2 -0.1,-0.3 -0.2,-0.5 -0.1,-0.1 -0.1,-0.3 -0.2,-0.4 -0.2,-0.3 -0.4,-0.4 -0.7,-0.5 -0.3,-0.1 -0.6,-0.1 -0.9,0 -0.3,0.1 -0.6,0.2 -0.8,0.5 -0.2,0.2 -0.4,0.5 -0.5,0.7 0,0 0,0 0,0 0,0.1 0,0.1 -0.1,0.1 -0.1,0.1 -0.4,0.1 -0.5,0 -0.1,-0.1 -0.1,-0.3 -0.1,-0.4 0.1,-0.4 0.4,-0.8 0.7,-1 0.3,-0.3 0.7,-0.5 1.1,-0.6 0.4,-0.1 0.9,-0.1 1.3,0 0.4,0.1 0.8,0.4 1.1,0.8 0.1,0.2 0.2,0.4 0.3,0.6 0.1,0.2 0.2,0.4 0.2,0.6 0.1,0.4 0.2,0.8 0.1,1.3 -0.1,0.4 -0.2,0.9 -0.5,1.2 -0.1,0.2 -0.3,0.3 -0.4,0.5 -0.1,0.1 -0.2,0.1 -0.3,0.2 0,0 -0.1,0.1 -0.1,0.1 0,0 -0.1,0.1 -0.1,0.1 -0.1,0 -0.1,0.1 -0.1,0.1 0,0 -0.1,0.1 -0.1,0.1 -0.1,0 -0.2,0.1 -0.3,0.1 -0.2,0.1 -0.4,0.1 -0.6,0.2 -0.4,0.1 -0.9,0.1 -1.3,0 -0.1,0 -0.2,0 -0.3,-0.1 -0.1,0 -0.2,-0.1 -0.3,-0.1 -0.2,-0.1 -0.4,-0.2 -0.6,-0.4 -0.3,-0.3 -0.6,-0.6 -0.9,-0.9 -0.3,-0.3 -0.5,-0.6 -0.7,-0.9 l -0.7,-0.9 -0.7,-0.9 -0.3,-0.4 c -0.1,-0.1 -0.1,-0.1 -0.2,-0.2 -0.1,-0.1 -0.1,-0.1 -0.2,-0.2 -0.2,-0.2 -0.3,-0.2 -0.4,-0.2 -0.1,0 -0.3,0 -0.5,0.1 -0.4,0.1 -0.9,0.5 -1.4,0.9 -0.5,0.4 -1,0.8 -1.4,1.3 0,0 -0.1,0.1 -0.1,0.1 0.5,0.5 1,0.9 1.5,1.5 0.3,0.3 0.6,0.7 0.9,1.1 0.3,0.4 0.5,0.9 0.7,1.4 0.2,0.5 0.2,1.2 0.1,1.8 -0.1,0.3 -0.2,0.6 -0.3,0.8 0,0.1 -0.1,0.1 -0.1,0.1 l -0.1,0.1 -0.1,0.2 c -0.3,0.6 -0.7,1.3 -0.9,1.9 -0.3,0.6 -0.5,1.3 -0.5,1.9 0,0.3 0,0.6 0.1,0.8 0,0.1 0,0.1 0.1,0.2 0,0 0,0 0,0.1 0,0 0,0.1 0,0.1 0.1,0.1 0.2,0.2 0.3,0.3 0.4,0.4 1.1,0.7 1.7,0.9 v 0 0 c 0,0 0,0 0,0 v 0 c 0,0 0.1,0 0.1,0 0.1,0 0.1,0 0.2,0 0.1,0 0.3,-0.1 0.4,-0.1 0.3,-0.1 0.5,-0.2 0.7,-0.4 0.2,-0.2 0.4,-0.4 0.5,-0.7 l 0.1,-0.1 v 0 0 0 0 0 -0.1 c 0,-0.1 0.1,-0.1 0.1,-0.2 0,-0.1 0.1,-0.3 0.1,-0.4 0,-0.3 -0.1,-0.5 -0.2,-0.7 -0.2,-0.2 -0.4,-0.4 -0.7,-0.5 -0.3,-0.1 -0.6,-0.2 -0.9,-0.1 -0.3,0 -0.6,0 -0.8,0.1 -0.2,0.1 -0.4,0 -0.5,-0.2 -0.1,-0.2 -0.1,-0.4 0.1,-0.5 v 0 c 0,0 0.1,0 0.1,0 0.4,-0.2 0.7,-0.3 1.1,-0.3 0.4,0 0.8,0.1 1.2,0.2 0.4,0.2 0.7,0.4 1,0.8 0.3,0.4 0.4,0.8 0.4,1.2 0,0.2 0,0.4 -0.1,0.6 0,0.1 -0.1,0.2 -0.1,0.3 l -0.1,0.1 -0.1,0.1 c -0.2,0.4 -0.4,0.7 -0.7,1 -0.3,0.3 -0.6,0.5 -1,0.7 -0.2,0.1 -0.4,0.1 -0.6,0.2 -0.1,0 -0.2,0 -0.3,0 -0.1,0 -0.1,0 -0.2,0 h -0.1 c 0,0 -0.1,0 -0.1,0 v 0 0 c -0.2,0 -0.4,-0.1 -0.6,-0.1 -0.2,-0.1 -0.4,-0.1 -0.6,-0.2 -0.4,-0.2 -0.8,-0.3 -1.1,-0.6 -0.2,-0.1 -0.4,-0.3 -0.5,-0.5 0,0 -0.1,-0.1 -0.1,-0.1 0,-0.1 -0.1,-0.1 -0.1,-0.2 -0.1,-0.1 -0.1,-0.2 -0.2,-0.3 -0.2,-0.4 -0.3,-0.9 -0.3,-1.3 0,-0.4 0,-0.9 0.1,-1.3 0.1,-0.4 0.1,-0.8 0.2,-1.2 0.2,-0.8 1.2,-3.9 -0.6,-4.3 0,0 0,0 0,0 -0.2,-0.1 -3.8,-1.1 -8.5,3.4 -1.5,1.4 1,3.5 1,3.5 0.5,0.5 1.1,1.1 1.6,1.7 0.3,0.3 0.5,0.7 0.7,1.1 0.1,0.2 0.2,0.5 0.2,0.7 0,0.1 0,0.3 0,0.4 0,0 0,0.1 0,0.1 v 0 0 0.1 0.1 c -0.1,0.5 -0.3,0.9 -0.5,1.3 -0.1,0.2 -0.2,0.4 -0.4,0.5 -0.1,0.1 -0.1,0.2 -0.2,0.2 0,0 -0.1,0.1 -0.1,0.1 0,0 -0.1,0.1 -0.1,0.1 0,0 -0.1,0.1 -0.1,0.1 0,0 -0.1,0.1 -0.1,0.1 -0.1,0.1 -0.2,0.1 -0.3,0.2 -0.2,0.1 -0.4,0.2 -0.6,0.2 -0.4,0.1 -0.9,0.1 -1.3,0 -0.4,-0.1 -0.8,-0.3 -1.2,-0.6 -0.2,-0.1 -0.3,-0.3 -0.5,-0.4 -0.2,-0.2 -0.3,-0.3 -0.4,-0.5 -0.2,-0.4 -0.4,-0.8 -0.3,-1.3 0,-0.5 0.2,-0.9 0.5,-1.2 0.3,-0.4 0.6,-0.6 1,-0.8 0.4,-0.2 0.8,-0.3 1.2,-0.3 0.1,0 0.2,0 0.3,0.1 0.1,0.1 0.1,0.4 0,0.5 -0.1,0.1 -0.2,0.1 -0.3,0.1 -0.3,0 -0.6,0 -0.9,0.2 -0.3,0.2 -0.5,0.4 -0.7,0.6 -0.2,0.3 -0.3,0.6 -0.3,0.9 0,0.3 0.1,0.6 0.3,0.9 0.1,0.1 0.2,0.3 0.3,0.4 0.1,0.1 0.3,0.2 0.4,0.3 0.3,0.2 0.6,0.3 0.9,0.4 0.3,0.1 0.6,0 0.9,-0.1 0.1,0 0.3,-0.1 0.4,-0.2 0.1,0 0.1,-0.1 0.2,-0.1 0,0 0.1,-0.1 0.1,-0.1 0,0 0.1,-0.1 0.1,-0.1 v 0 l 0.1,-0.1 0.1,-0.1 0.1,-0.1 c 0.1,-0.1 0.1,-0.1 0.2,-0.2 0.1,-0.1 0.2,-0.3 0.3,-0.4 0.1,-0.3 0.2,-0.6 0.2,-0.9 v -0.1 -0.1 0 0 c 0,0 0,0 0,0 0,-0.1 0,-0.1 0,-0.2 0,-0.1 -0.1,-0.2 -0.2,-0.3 -0.1,-0.2 -0.4,-0.5 -0.6,-0.7 -0.5,-0.5 -1.1,-0.9 -1.7,-1.4 l -0.9,-0.7 -0.4,-0.4 -0.3,-0.2 -0.1,-0.1 c -0.1,0 -0.1,-0.1 -0.1,-0.1 -0.2,-0.2 -0.4,-0.4 -0.5,-0.7 -0.1,-0.3 -0.2,-0.5 -0.3,-0.8 -0.1,-0.6 -0.1,-1.1 0,-1.6 0.2,-0.9 0.6,-1.7 0.9,-2.5 0.2,-0.4 0.4,-0.7 0.6,-1.1 0,0 0,0 0,0 0,0 0,0 0,0 0,0 0,0 0,0 0,0 -3.3,1.6 -4.6,1.7 0,0 0,0 0,0 -0.1,0 -0.2,0 -0.3,0.1 -0.6,0.1 -1.2,0.1 -1.9,0.1 -0.2,0 -0.3,0 -0.5,-0.1 h -0.2 l -0.2,-0.1 c -0.2,-0.1 -0.5,-0.1 -0.7,-0.2 -0.5,-0.1 -0.9,-0.2 -1.4,-0.2 -0.2,0 -0.4,0 -0.6,0 -0.2,0 -0.4,0 -0.6,0.1 -0.2,0.1 -0.4,0.2 -0.7,0.3 -0.1,0 -0.3,0.1 -0.4,0.1 h -0.1 -0.1 c 0,0 -0.1,0 -0.1,0.1 -0.3,0.2 -0.6,0.4 -0.8,0.8 -0.1,0.1 -0.1,0.2 -0.1,0.3 v 0.1 c 0,0 0,0 0,0 0,0 0,0.1 0,0.1 -0.1,0.2 -0.1,0.4 -0.1,0.6 0,0.4 0.1,0.8 0.3,1.1 0.2,0.3 0.5,0.6 0.9,0.7 0.4,0.2 0.8,0.3 1.2,0.2 0.4,0 0.7,-0.2 0.9,-0.6 0.5,-0.6 0.5,-1.7 0,-2.4 v 0 c -0.1,-0.1 -0.1,-0.3 0,-0.4 0.1,-0.1 0.3,-0.1 0.4,0 v 0 c 0,0 0,0 0,0 0.4,0.4 0.6,1 0.7,1.6 0.1,0.6 0,1.2 -0.4,1.8 -0.2,0.3 -0.4,0.5 -0.7,0.7 -0.3,0.2 -0.6,0.3 -0.9,0.4 -0.6,0.1 -1.3,0 -1.8,-0.2 -0.6,-0.2 -1.1,-0.5 -1.5,-1.1"/>
  <path
    d="m 21.2,193.7 c 0.2,0 0.4,0.1 0.5,0.2 0.1,0.1 0.2,0.3 0.2,0.5 v 4.9 c 0,0.2 -0.1,0.4 -0.2,0.5 -0.1,0.1 -0.3,0.2 -0.5,0.2 H 5.1 c -0.5,0 -0.7,-0.2 -0.7,-0.7 v -24.6 c 0,-0.5 0.2,-0.7 0.7,-0.7 h 5.1 c 0.5,0 0.7,0.2 0.7,0.7 V 193 c 0,0.2 0.1,0.4 0.2,0.5 0.1,0.1 0.3,0.2 0.5,0.2 h 9.5" />
  <path
    d="m 50.9,174.1 c 0.1,0.1 0.2,0.3 0.2,0.5 v 20.4 0 c 0,0.2 0,0.4 -0.1,0.6 -0.1,0.2 -0.1,0.4 -0.2,0.6 l -3.4,3.4 c -0.2,0.1 -0.4,0.2 -0.7,0.2 -0.3,0.1 -0.5,0.1 -0.7,0.1 H 34.2 c -0.2,0 -0.4,0 -0.7,-0.1 -0.2,0 -0.5,-0.1 -0.6,-0.2 l -3.4,-3.4 c -0.1,-0.2 -0.2,-0.4 -0.2,-0.6 -0.1,-0.2 -0.1,-0.5 -0.1,-0.7 v -20.3 c 0,-0.2 0.1,-0.4 0.2,-0.5 0.1,-0.1 0.3,-0.2 0.5,-0.2 H 35 c 0.2,0 0.4,0.1 0.5,0.2 0.1,0.1 0.2,0.3 0.2,0.5 v 18.3 c 0,0.2 0.1,0.4 0.2,0.5 0.1,0.1 0.3,0.2 0.5,0.2 h 7.4 c 0.2,0 0.4,-0.1 0.5,-0.2 0.1,-0.1 0.2,-0.3 0.2,-0.5 v -18.3 c 0,-0.2 0.1,-0.4 0.2,-0.5 0.1,-0.1 0.3,-0.2 0.5,-0.2 h 5.2 c 0.2,0 0.4,0.1 0.5,0.2" />
  <path
    d="m 77.5,193.7 c 0.2,0 0.4,0.1 0.5,0.2 0.1,0.1 0.2,0.3 0.2,0.5 v 4.9 c 0,0.2 -0.1,0.4 -0.2,0.5 -0.1,0.1 -0.3,0.2 -0.5,0.2 H 61.4 c -0.5,0 -0.7,-0.2 -0.7,-0.7 v -24.6 c 0,-0.5 0.2,-0.7 0.7,-0.7 h 5.1 c 0.5,0 0.7,0.2 0.7,0.7 V 193 c 0,0.2 0.1,0.4 0.2,0.5 0.1,0.1 0.3,0.2 0.5,0.2 h 9.5" />
  <path
    d="m 105.3,179.3 c 0,0.2 -0.1,0.4 -0.2,0.6 -0.1,0.2 -0.2,0.4 -0.3,0.6 l -12.1,13.6 h 11.9 c 0.2,0 0.4,0.1 0.5,0.2 0.1,0.1 0.2,0.3 0.2,0.5 v 4.4 c 0,0.2 -0.1,0.4 -0.2,0.5 -0.1,0.2 -0.3,0.3 -0.5,0.3 H 86.1 c -0.5,0 -0.7,-0.2 -0.7,-0.7 v -4.7 c 0,-0.2 0,-0.4 0.1,-0.7 0.1,-0.2 0.2,-0.4 0.3,-0.6 L 98.2,179.8 H 86.4 c -0.2,0 -0.4,-0.1 -0.5,-0.2 -0.1,-0.1 -0.2,-0.3 -0.2,-0.5 v -4.4 c 0,-0.2 0.1,-0.4 0.2,-0.5 0.1,-0.1 0.3,-0.2 0.5,-0.2 h 18.3 c 0.2,0 0.4,0.1 0.5,0.2 0.1,0.1 0.2,0.3 0.2,0.5 v 4.7" />
  <path
    d="m 120.9,194.3 h 10 v -5.1 h -10 z m 0,-10 h 10 v -4.7 h -10 z m 15.7,-6.6 c 0.1,0.2 0.1,0.4 0.2,0.7 0.1,0.3 0.1,0.5 0.1,0.7 v 4.1 c 0,0.2 0,0.4 -0.1,0.7 -0.1,0.2 -0.2,0.4 -0.3,0.6 l -1.6,2.1 c -0.1,0.1 -0.2,0.3 -0.2,0.6 0,0.2 0.1,0.4 0.2,0.5 l 1.5,1.9 c 0.1,0.1 0.2,0.3 0.3,0.6 0.1,0.2 0.1,0.5 0.1,0.7 v 4.4 c 0,0.2 0,0.4 -0.1,0.7 -0.1,0.3 -0.1,0.5 -0.2,0.6 l -3.4,3.4 c -0.2,0.1 -0.4,0.2 -0.7,0.2 -0.3,0.1 -0.5,0.1 -0.7,0.1 h -16.1 c -0.5,0 -0.7,-0.2 -0.7,-0.7 v -25 c 0,-0.2 0.1,-0.4 0.2,-0.5 0.1,-0.1 0.3,-0.2 0.5,-0.2 h 16.1 c 0.2,0 0.4,0 0.7,0.1 0.3,0.1 0.5,0.1 0.7,0.2 l 3.4,3.4" />
  <path
    d="m 152.8,193.7 h 8.7 v -13.4 h -8.7 z m 15,-16 c 0.1,0.2 0.1,0.4 0.2,0.6 0.1,0.2 0.1,0.5 0.1,0.7 v 16 c 0,0.2 0,0.4 -0.1,0.7 -0.1,0.3 -0.1,0.5 -0.2,0.6 l -3.4,3.4 c -0.2,0.1 -0.4,0.2 -0.7,0.2 -0.3,0.1 -0.5,0.1 -0.7,0.1 h -11.7 c -0.2,0 -0.4,0 -0.7,-0.1 -0.2,0 -0.5,-0.1 -0.6,-0.2 l -3.4,-3.4 c -0.1,-0.2 -0.2,-0.4 -0.2,-0.6 -0.1,-0.2 -0.1,-0.5 -0.1,-0.7 v -16 c 0,-0.2 0,-0.4 0.1,-0.7 0,-0.2 0.1,-0.5 0.2,-0.6 l 3.4,-3.4 c 0.2,-0.1 0.4,-0.1 0.6,-0.2 0.2,-0.1 0.5,-0.1 0.7,-0.1 h 11.8 c 0.2,0 0.4,0 0.7,0.1 0.3,0.1 0.5,0.1 0.7,0.2 l 3.4,3.4" />
  <path
    d="m 195.6,179.6 c 0,0.2 -0.1,0.4 -0.2,0.5 -0.1,0.1 -0.3,0.2 -0.5,0.2 h -5.3 c -0.2,0 -0.4,0.1 -0.5,0.2 -0.1,0.1 -0.2,0.3 -0.2,0.5 v 18.3 c 0,0.2 -0.1,0.4 -0.2,0.5 -0.1,0.1 -0.3,0.2 -0.5,0.2 H 183 c -0.2,0 -0.4,-0.1 -0.5,-0.2 -0.1,-0.1 -0.2,-0.3 -0.2,-0.5 V 181 c 0,-0.2 -0.1,-0.4 -0.2,-0.5 -0.1,-0.1 -0.3,-0.2 -0.5,-0.2 h -5.3 c -0.2,0 -0.4,-0.1 -0.5,-0.2 -0.1,-0.1 -0.2,-0.3 -0.2,-0.5 v -4.9 c 0,-0.5 0.2,-0.7 0.7,-0.7 h 18.5 c 0.2,0 0.4,0.1 0.5,0.2 0.1,0.1 0.2,0.3 0.2,0.5 v 4.9" />
</svg>
