<?xml version="1.0" encoding="utf-8"?>
<svg
  xmlns="http://www.w3.org/2000/svg"
  version="1.1"
  id="epiray"
  viewBox="0 0 200 100"
  fill="currentColor"
  stroke="none">
  <path
    d="m 24.8,57.2 c 1.6,0 2.9,0.1 3.9,0.4 1,0.3 1.9,0.7 2.5,1.3 0.6,0.6 1,1.4 1.3,2.4 0.2,1 0.4,2.2 0.4,3.6 v 4.5 c 0,1 -0.2,1.7 -0.6,2.1 -0.4,0.4 -1.1,0.6 -2,0.6 H 6.6 v 1.1 c 0,1.5 0.4,2.5 1.1,3.2 0.7,0.6 2.1,1 4.1,1 h 19.5 c 0.6,0 0.8,0.3 0.8,0.8 v 3.9 c 0,0.6 -0.3,0.8 -0.8,0.8 H 11.1 C 9,82.9 7.2,82.7 5.8,82.4 4.4,82.1 3.2,81.5 2.4,80.7 1.5,79.9 0.9,79 0.6,77.8 0.2,76.6 0,75.1 0,73.4 v -6.7 c 0,-1.7 0.2,-3.1 0.6,-4.3 0.4,-1.2 1,-2.2 1.9,-3 0.9,-0.8 2,-1.3 3.4,-1.7 1.4,-0.4 3.2,-0.5 5.3,-0.5 z M 6.6,67.8 h 18.9 c 0.5,0 0.8,-0.3 0.8,-0.8 v -2 c 0,-1 -0.2,-1.7 -0.6,-2.1 -0.4,-0.4 -1.2,-0.6 -2.2,-0.6 H 11.8 c -2,0 -3.4,0.3 -4.1,1 C 7,63.9 6.6,65 6.6,66.5 Z" />
  <path
    d="m 63.3,57.2 c 2.1,0 3.9,0.2 5.3,0.5 1.4,0.4 2.6,0.9 3.4,1.7 0.9,0.8 1.5,1.8 1.9,3 0.4,1.2 0.6,2.6 0.6,4.3 v 6.7 c 0,1.7 -0.2,3.1 -0.6,4.3 -0.4,1.2 -1,2.2 -1.9,2.9 -0.9,0.8 -2,1.3 -3.4,1.7 -1.4,0.3 -3.2,0.5 -5.3,0.5 H 45.8 v 9.3 c 0,0.7 -0.3,1 -1,1 h -4.6 c -0.7,0 -1.1,-0.3 -1.1,-1 V 66.6 c 0,-1.7 0.2,-3.1 0.6,-4.3 0.4,-1.2 1,-2.2 1.9,-3 0.9,-0.8 2,-1.3 3.4,-1.7 1.4,-0.4 3.2,-0.5 5.3,-0.5 z M 45.8,77.3 h 16.9 c 1,0 1.9,-0.1 2.5,-0.2 0.6,-0.1 1.2,-0.4 1.6,-0.8 0.4,-0.4 0.7,-0.9 0.8,-1.6 0.1,-0.6 0.2,-1.5 0.2,-2.5 V 68 c 0,-1 -0.1,-1.8 -0.2,-2.5 -0.2,-0.7 -0.4,-1.2 -0.8,-1.6 -0.4,-0.4 -0.9,-0.7 -1.6,-0.8 -0.6,-0.2 -1.5,-0.3 -2.5,-0.3 H 50.9 c -1,0 -1.8,0.1 -2.5,0.3 -0.6,0.2 -1.2,0.5 -1.6,0.8 -0.4,0.4 -0.7,0.9 -0.8,1.6 -0.2,0.7 -0.2,1.5 -0.2,2.5 z" />
  <path
    d="m 86.9,57.2 c 0.7,0 1,0.4 1,1.1 v 23.6 c 0,0.7 -0.3,1 -1,1 h -4.6 c -0.7,0 -1,-0.3 -1,-1 V 58.3 c 0,-0.7 0.3,-1.1 1,-1.1 z" />
  <path
    d="m 119.2,57.2 c 0.6,0 0.8,0.3 0.8,0.8 v 3.9 c 0,0.6 -0.3,0.8 -0.8,0.8 h -12.4 c -1,0 -1.8,0.1 -2.5,0.3 -0.6,0.2 -1.2,0.5 -1.6,0.8 -0.4,0.4 -0.7,0.9 -0.8,1.6 -0.2,0.7 -0.2,1.5 -0.2,2.5 v 13.9 c 0,0.7 -0.3,1 -1,1 h -4.6 c -0.7,0 -1.1,-0.3 -1.1,-1 V 66.7 c 0,-1.7 0.2,-3.1 0.6,-4.3 0.4,-1.2 1,-2.2 1.9,-3 0.9,-0.8 2,-1.3 3.4,-1.7 1.4,-0.4 3.2,-0.5 5.3,-0.5 z" />
  <path
    d="m 145.9,57.2 c 2.1,0 3.9,0.2 5.3,0.5 1.4,0.4 2.6,0.9 3.4,1.7 0.9,0.8 1.5,1.8 1.9,3 0.4,1.2 0.6,2.6 0.6,4.3 v 12.4 c 0,0.7 0,1.4 -0.2,1.9 -0.1,0.5 -0.3,0.9 -0.6,1.2 -0.3,0.3 -0.6,0.5 -1.1,0.6 -0.4,0.1 -1,0.2 -1.7,0.2 h -22.3 c -1.4,0 -2.5,-0.1 -3.4,-0.4 -0.9,-0.3 -1.7,-0.7 -2.2,-1.2 -0.6,-0.5 -1,-1.2 -1.2,-2.1 -0.2,-0.8 -0.4,-1.8 -0.4,-3 v -2.2 c 0,-1 0.1,-1.8 0.4,-2.6 0.2,-0.8 0.6,-1.4 1.2,-1.9 0.6,-0.5 1.3,-0.9 2.2,-1.2 0.9,-0.3 2.1,-0.4 3.4,-0.4 h 19 v -0.9 c 0,-0.7 -0.1,-1.4 -0.2,-1.9 -0.2,-0.5 -0.4,-1 -0.8,-1.3 -0.4,-0.3 -0.9,-0.6 -1.5,-0.7 -0.6,-0.1 -1.5,-0.2 -2.5,-0.2 h -19.6 c -0.6,0 -0.8,-0.3 -0.8,-0.8 v -3.9 c 0,-0.6 0.3,-0.8 0.8,-0.8 h 20.2 z m 3.1,20.5 c 0.5,0 0.8,-0.1 1.1,-0.4 0.2,-0.2 0.3,-0.6 0.3,-1.3 v -4.1 h -17.1 c -1,0 -1.6,0.2 -2,0.6 -0.4,0.4 -0.6,1 -0.6,1.7 v 1 c 0,0.8 0.2,1.5 0.6,1.9 0.4,0.4 1.1,0.6 2,0.6 z" />
  <path
    d="m 195.9,57.2 c 0.3,0 0.6,0.1 0.7,0.4 0.1,0.2 0.1,0.5 -0.1,0.8 l -18,31.7 c -0.6,1.1 -1.5,1.9 -2.6,2.4 -1.1,0.5 -2.7,0.8 -4.7,0.8 h -3.3 c -0.6,0 -0.8,-0.3 -0.8,-0.8 v -3.8 c 0,-0.6 0.3,-0.8 0.8,-0.8 h 2.8 c 1.2,0 2,-0.4 2.4,-1.1 l 2.5,-4.5 c -0.8,-0.1 -1.4,-0.2 -1.8,-0.6 -0.4,-0.3 -0.8,-0.8 -1.2,-1.4 L 160,58.5 c -0.2,-0.3 -0.2,-0.6 -0.1,-0.8 0.1,-0.2 0.3,-0.4 0.7,-0.4 h 5.4 c 0.5,0 0.9,0.2 1.1,0.6 l 10.4,18 c 0.2,0.4 0.5,0.7 0.6,0.9 0.1,0.1 0.3,0.2 0.5,0.2 l 11,-19.1 c 0.2,-0.4 0.6,-0.6 1.1,-0.6 h 5.2 z" />
  <path
    d="M 65.9,0 81.5,40.7 55.3,18.4 79.2,42 0,45.3 75.1,46.7 65.1,53.9 78.9,46.7 72.9,61 82.8,46.2 93.4,60.1 86.4,46.3 106.3,55.2 90.5,45.8 200,43.8 87.2,41.5 107.1,26.8 86.1,39.1 94.3,6.2 83.6,38.3 Z"
    style="fill:#f43745" />
</svg>