<?xml version="1.0" encoding="utf-8"?>
<svg
  xmlns="http://www.w3.org/2000/svg"
  version="1.1"
  id="jetbrains"
  viewBox="0 0 150 32"
  fill="currentColor"
  stroke="none">
  <defs id="defs3">
    <linearGradient
      id="a"
      x1="0.8"
      x2="62.6"
      y1="62.7"
      y2="1.8"
      gradientUnits="userSpaceOnUse"
      gradientTransform="scale(0.5)">
      <stop
        stop-color="#FF9419" />
      <stop
        offset="0.4"
        stop-color="#FF021D" />
      <stop
        offset="1"
        stop-color="#E600FF" />
    </linearGradient>
  </defs>
  <path
    d="m 44.4,20.3 c 0,0.4 -0.1,0.8 -0.3,1.1 -0.2,0.3 -0.4,0.6 -0.8,0.8 -0.3,0.2 -0.7,0.3 -1.1,0.3 h -2.1 v 3.1 h 2.5 c 1,0 1.8,-0.2 2.6,-0.6 0.8,-0.4 1.4,-1 1.8,-1.8 0.4,-0.8 0.7,-1.6 0.7,-2.5 V 10.5 h -3.3 z m 8.9,-0.9 H 60.3 V 16.6 H 53.3 V 13.4 H 61 V 10.5 H 50.1 V 25.5 H 61.2 V 22.6 h -7.9 z m 8.9,-5.9 h 4.4 V 25.5 h 3.3 V 13.5 h 4.4 V 10.5 H 62.3 v 3 z m 23.5,4.5 c -0.3,-0.1 -0.5,-0.2 -0.8,-0.3 0.2,-0.1 0.4,-0.1 0.6,-0.2 0.5,-0.3 1,-0.7 1.3,-1.2 0.3,-0.5 0.5,-1.1 0.5,-1.8 0,-0.8 -0.2,-1.4 -0.6,-2 -0.4,-0.6 -1,-1.1 -1.7,-1.4 -0.7,-0.3 -1.6,-0.5 -2.6,-0.5 H 75.8 V 25.5 h 6.8 c 1,0 1.9,-0.2 2.7,-0.5 0.8,-0.4 1.4,-0.8 1.8,-1.5 0.4,-0.6 0.7,-1.3 0.7,-2.2 0,-0.7 -0.2,-1.4 -0.5,-2 -0.3,-0.6 -0.8,-1 -1.4,-1.4 z m -6.8,-5 h 2.9 c 0.4,0 0.8,0.1 1.1,0.2 0.3,0.1 0.6,0.4 0.7,0.6 0.2,0.3 0.3,0.6 0.3,1 0,0.4 -0.1,0.7 -0.3,1 -0.2,0.3 -0.4,0.5 -0.7,0.7 -0.3,0.2 -0.7,0.2 -1.1,0.2 h -2.9 v -3.7 z m 5.1,9.1 c -0.2,0.3 -0.5,0.5 -0.8,0.7 -0.3,0.2 -0.7,0.2 -1.2,0.2 h -3.1 v -3.8 h 3.1 c 0.4,0 0.8,0.1 1.2,0.2 0.3,0.2 0.6,0.4 0.8,0.7 0.2,0.3 0.3,0.6 0.3,1 0,0.4 -0.1,0.7 -0.3,1 z m 14.8,-2.7 c 0.8,-0.4 1.5,-1 1.9,-1.7 0.5,-0.7 0.7,-1.6 0.7,-2.5 0,-1 -0.2,-1.8 -0.7,-2.5 -0.4,-0.7 -1.1,-1.3 -1.9,-1.7 -0.8,-0.4 -1.8,-0.6 -2.9,-0.6 h -6.6 v 15 h 3.3 v -5.5 h 2.2 l 3,5.5 h 3.8 l -3.4,-5.9 c 0.2,-0.1 0.3,-0.1 0.5,-0.2 z M 97.8,16.4 c -0.2,0.3 -0.4,0.6 -0.8,0.7 -0.3,0.2 -0.7,0.3 -1.2,0.3 H 92.8 V 13.2 h 3 c 0.5,0 0.9,0.1 1.2,0.2 0.3,0.2 0.6,0.4 0.8,0.7 0.2,0.3 0.3,0.7 0.3,1.1 0,0.4 -0.1,0.8 -0.3,1.1 z m 10.3,-5.9 -5.4,15 h 3.4 l 1.1,-3.3 h 5.6 l 1.1,3.3 h 3.3 l -5.5,-15 z m -0.2,9.2 1.7,-5.3 0.2,-1 0.2,1 1.8,5.3 z m 10.3,5.8 h 3.4 V 10.5 h -3.4 z m 15.5,-4.8 -6.4,-10.1 h -3.2 v 15 h 3 V 15.4 l 6.4,10.1 h 3.3 V 10.5 h -3 z m 15.8,-1.7 c -0.3,-0.6 -0.8,-1.1 -1.4,-1.6 -0.6,-0.4 -1.3,-0.7 -2,-0.8 l -2.5,-0.5 c -0.4,-0.1 -0.7,-0.3 -1,-0.5 -0.2,-0.2 -0.4,-0.5 -0.4,-0.9 0,-0.3 0.1,-0.6 0.3,-0.8 0.2,-0.2 0.4,-0.4 0.7,-0.6 0.3,-0.1 0.7,-0.2 1.1,-0.2 0.4,0 0.8,0.1 1.1,0.2 0.3,0.1 0.6,0.3 0.7,0.6 0.2,0.3 0.3,0.5 0.3,0.9 h 3.3 c 0,-0.9 -0.3,-1.6 -0.7,-2.3 -0.5,-0.7 -1.1,-1.2 -1.9,-1.6 -0.8,-0.4 -1.8,-0.6 -2.8,-0.6 -1,0 -2,0.2 -2.8,0.6 -0.8,0.4 -1.4,0.9 -1.9,1.6 -0.5,0.7 -0.7,1.5 -0.7,2.4 0,0.7 0.1,1.4 0.4,2 0.3,0.6 0.7,1.1 1.2,1.4 0.5,0.4 1.2,0.7 1.9,0.8 l 2.7,0.6 c 0.4,0.1 0.8,0.3 1.1,0.6 0.3,0.3 0.4,0.6 0.4,1 0,0.3 -0.1,0.6 -0.3,0.9 -0.2,0.3 -0.5,0.5 -0.8,0.6 -0.3,0.1 -0.7,0.2 -1.2,0.2 -0.5,0 -0.9,-0.1 -1.3,-0.2 -0.4,-0.2 -0.7,-0.4 -0.9,-0.7 -0.2,-0.3 -0.3,-0.6 -0.3,-1 h -3.3 c 0,0.9 0.3,1.8 0.8,2.5 0.5,0.7 1.2,1.3 2,1.7 0.9,0.4 1.8,0.6 2.9,0.6 1.1,0 2.1,-0.2 3,-0.6 0.9,-0.4 1.5,-1 2,-1.7 0.5,-0.7 0.7,-1.5 0.7,-2.4 0,-0.7 -0.2,-1.4 -0.5,-2.1 z" />
  <path
    fill="url(#a)"
    d="M 10.2,1.8 1.8,10.2 C 0.7,11.3 0,12.9 0,14.6 V 29.5 C 0,30.9 1.1,32 2.5,32 h 14.9 c 1.7,0 3.2,-0.7 4.4,-1.8 l 8.3,-8.3 C 31.3,20.7 32,19.1 32,17.4 V 2.5 C 32,1.1 30.9,0 29.5,0 H 14.6 c -1.7,0 -3.2,0.7 -4.4,1.8 z"
    style="fill:url(#a)" />
  <path
    fill="#000000"
    d="M 24,8 H 4 v 20 h 20 z" />
  <path
    fill="#ffffff"
    d="M 15,23.5 H 6.5 v 2 H 15 Z" />
</svg>