<?xml version="1.0" encoding="utf-8"?>
<svg
  xmlns="http://www.w3.org/2000/svg"
  version="1.1"
  id="kicad"
  viewBox="0 0 120 50"
  stroke="none">
  <path
    style="fill:#314cb0;stroke:#1d2d68;stroke-width:2;stroke-miterlimit:4;"
    d="m 1.2,4.4 h 42.6 c 0.2,0 0.3,0.2 0.3,0.4 v 40.9 c 0,0.2 -0.2,0.4 -0.3,0.4 h -42.6 c -0.2,0 -0.3,-0.2 -0.3,-0.4 V 4.8 c 0,-0.2 0.2,-0.4 0.3,-0.4 z" />
  <path
    style="fill:#ffffff;"
    d="m 11.9,21.7 6.3,-8 c 1.3,-1.6 1.9,-2.8 1.9,-3.6 0,-0.3 0,-0.5 -0.1,-0.7 h 11 c -0.8,0.5 -1.9,1.5 -3.1,3 -0.3,0.4 -0.9,1.1 -1.8,2.2 l -8.3,10.3 9.9,13.6 c 0.6,0.8 1.4,1.7 2.3,2.8 0.2,0.3 0.6,0.6 1.1,0.9 h -11.3 c 0.1,-0.3 0.1,-0.6 0.1,-0.9 0,-0.8 -0.6,-2 -1.7,-3.5 l -6.3,-8.7 v 8.8 c 0,2 0.4,3.5 1.2,4.3 H 2.8 c 0.6,-0.6 0.9,-1.2 1.1,-2 0.1,-0.4 0.1,-1.2 0.1,-2.3 v -24.2 c 0,-1.1 0,-1.9 -0.1,-2.3 -0.2,-0.7 -0.5,-1.4 -1.1,-2 h 10.3 c -0.8,0.8 -1.2,2.2 -1.2,4.3 v 8.1" />
  <path
    style="fill:#ffffff;"
    d="m 41.4,18 v 20.2 c 0,1.1 0,1.7 0.1,2.1 0.1,0.7 0.4,1.3 0.9,1.8 h -9.7 c 0.5,-0.5 0.8,-1.1 0.9,-1.8 0.1,-0.3 0.1,-1 0.1,-2.1 v -16.3 c 0,-1.1 0,-1.7 -0.1,-2 -0.1,-0.6 -0.4,-1.2 -0.9,-1.8 h 8.6" />
  <path
    style="fill:#1b2b63;"
    d="m 69.9,40.6 c -2.3,1.3 -4.9,2 -7.8,2 -4.6,0 -8.2,-1.7 -11,-5.1 -2.5,-3.1 -3.8,-7.1 -3.8,-11.8 0,-5.3 1.6,-9.5 4.7,-12.6 2.9,-2.9 6.3,-4.3 10.2,-4.3 2.6,0 5.2,0.7 7.9,2.2 0.7,0.4 1.2,0.6 1.7,0.6 l -3.9,5.7 c -1.3,-1.6 -3,-2.5 -5.2,-2.5 -3.4,0 -5.6,2.1 -6.6,6.2 -0.3,1.4 -0.5,2.9 -0.5,4.5 0,4.7 1.2,7.8 3.5,9.5 1.1,0.8 2.3,1.2 3.5,1.2 2.2,0 4.2,-1 5.9,-2.9 l 3.6,6 c -0.2,0 -0.9,0.3 -2.2,1.1" />
  <path
    style="fill:#1b2b63;"
    d="m 85.9,35.3 v -3.8 c -0.6,-0.1 -1.1,-0.2 -1.8,-0.2 -1.2,0 -2.3,0.2 -3.2,0.7 -1.1,0.6 -1.7,1.4 -1.7,2.5 0,0.8 0.3,1.5 0.9,2 0.6,0.5 1.3,0.7 2.2,0.7 1.6,0 2.8,-0.6 3.5,-1.9 m 8.6,6.7 h -8.2 v -1.9 c -1.5,1.5 -3.4,2.3 -5.8,2.4 -1.7,0 -3.2,-0.4 -4.6,-1.1 -1.4,-0.8 -2.5,-1.9 -3.2,-3.4 -0.5,-1.1 -0.7,-2.2 -0.7,-3.6 0,-3 1.5,-5.3 4.5,-6.7 1.7,-0.8 4.1,-1.3 7.2,-1.3 0.4,0 1.2,0 2.3,0.1 0,-2.5 -1.1,-3.8 -3.3,-3.8 -1.9,0 -3.8,0.5 -5.9,1.6 l -2.2,-5.3 c 0.5,0 1.4,-0.2 2.8,-0.5 l 3,-0.7 c 1,-0.2 2.1,-0.3 3.3,-0.3 4.7,0 7.6,1.5 8.8,4.5 0.6,1.5 0.9,3.3 0.9,5.4 V 38.2 c 0,1.1 0,1.7 0.1,2.1 0.1,0.7 0.4,1.3 0.9,1.8" />
  <path
    style="fill:#1b2b63;"
    d="m 111.3,35.3 v -11 c -1,-0.8 -2,-1.2 -3.2,-1.2 -2.6,0 -3.9,2.5 -3.9,7.5 0,4 1.2,6.1 3.5,6.1 1.2,0 2.4,-0.5 3.6,-1.4 M 110.4,7.4 h 8.6 v 30.8 c 0,1.8 0.3,3.1 1,3.9 h -8.2 v -1.9 c -1.6,1.6 -3.6,2.4 -6.1,2.4 -2.1,0 -3.9,-0.6 -5.4,-1.9 -1.4,-1.2 -2.5,-2.8 -3.2,-4.9 -0.5,-1.4 -0.7,-3 -0.7,-4.8 0,-5.8 1.5,-9.8 4.5,-12 1.4,-1 3,-1.5 4.9,-1.5 2.4,0 4.3,0.7 5.7,2 v -8.3 c 0,-1.1 0,-1.7 -0.1,-2 -0.1,-0.6 -0.4,-1.2 -0.9,-1.8" />
  <path
    style="fill:#ff7700;"
    d="m 42,4.5 c 0,2.5 -2,4.5 -4.5,4.5 -2.5,0 -4.5,-2 -4.5,-4.5 0,-2.5 2,-4.5 4.5,-4.5 2.5,0 4.5,2 4.5,4.5 z" />
</svg>