<?xml version="1.0" encoding="utf-8"?>
<svg
  xmlns="http://www.w3.org/2000/svg"
  version="1.1"
  id="microsoft"
  viewBox="0 0 300 64"
  fill="currentColor"
  stroke="none">
  <path
    d="m 124.7,12.8 v 38.4 h -6.7 V 21.1 h -0.1 L 106,51.2 H 101.6 L 89.4,21.1 h -0.1 V 51.2 h -6.1 V 12.8 h 9.6 l 11,28.4 h 0.2 L 115.6,12.8 Z m 5.5,2.9 c 0,-1.1 0.4,-2 1.2,-2.7 0.8,-0.7 1.7,-1.1 2.8,-1.1 1.2,0 2.1,0.4 2.8,1.1 0.7,0.7 1.2,1.6 1.2,2.7 0,1.1 -0.4,2 -1.2,2.7 -0.8,0.7 -1.7,1.1 -2.8,1.1 -1.2,0 -2,-0.4 -2.8,-1.1 -0.7,-0.8 -1.2,-1.7 -1.2,-2.7 z m 7.2,7.9 V 51.2 h -6.5 V 23.6 Z m 19.6,22.8 c 1,0 2,-0.2 3.2,-0.7 1.2,-0.4 2.2,-1.1 3.2,-1.8 v 6 c -1.1,0.6 -2.2,1.1 -3.6,1.3 -1.3,0.3 -2.8,0.4 -4.4,0.4 -4.1,0 -7.4,-1.2 -9.9,-3.8 -2.6,-2.6 -3.8,-5.9 -3.8,-9.8 0,-4.4 1.3,-8.1 3.9,-10.9 C 148.4,24.4 152,23 156.8,23 c 1.2,0 2.5,0.2 3.6,0.4 1.2,0.3 2.2,0.7 2.9,1.1 v 6.2 c -1,-0.7 -2,-1.3 -3,-1.7 -1.1,-0.4 -2.1,-0.6 -3.2,-0.6 -2.6,0 -4.6,0.8 -6.2,2.5 -1.6,1.7 -2.3,3.9 -2.3,6.8 0,2.8 0.8,5 2.3,6.5 1.5,1.5 3.6,2.3 6.1,2.3 z M 181.9,23.2 c 0.5,0 1,0 1.4,0.1 0.4,0.1 0.8,0.2 1.1,0.3 v 6.6 c -0.4,-0.3 -0.8,-0.5 -1.5,-0.7 -0.7,-0.2 -1.4,-0.4 -2.4,-0.4 -1.6,0 -2.9,0.7 -4,2 -1.1,1.3 -1.7,3.4 -1.7,6.2 V 51.2 h -6.5 V 23.6 h 6.5 V 28 h 0.1 c 0.6,-1.5 1.5,-2.7 2.7,-3.6 1.2,-0.8 2.7,-1.2 4.4,-1.2 z m 2.8,14.7 c 0,-4.5 1.3,-8.2 3.8,-10.8 2.6,-2.7 6.1,-4 10.7,-4 4.3,0 7.6,1.2 10,3.8 2.4,2.6 3.6,6 3.6,10.4 0,4.4 -1.3,8 -3.8,10.7 -2.6,2.7 -6,4 -10.5,4 -4.3,0 -7.6,-1.2 -10.1,-3.7 C 186,45.6 184.7,42.1 184.7,37.9 Z M 191.5,37.6 c 0,2.8 0.6,5.1 2,6.6 1.3,1.5 3.2,2.3 5.6,2.3 2.3,0 4.2,-0.7 5.4,-2.3 1.2,-1.5 1.9,-3.7 1.9,-6.8 0,-2.9 -0.6,-5.2 -1.9,-6.8 -1.2,-1.5 -3.1,-2.3 -5.3,-2.3 -2.4,0 -4.2,0.8 -5.5,2.4 -1.5,1.7 -2.1,3.9 -2.1,6.8 z m 31.1,-6.7 c 0,0.9 0.3,1.7 0.9,2.2 0.6,0.5 1.9,1.2 3.9,2 2.6,1.1 4.4,2.2 5.4,3.5 1.1,1.3 1.6,2.8 1.6,4.7 0,2.6 -1,4.6 -3,6.2 -2,1.6 -4.7,2.3 -8.1,2.3 -1.2,0 -2.4,-0.2 -3.8,-0.4 -1.4,-0.3 -2.6,-0.6 -3.6,-1.1 v -6.4 c 1.2,0.8 2.5,1.5 3.8,2 1.3,0.4 2.6,0.7 3.7,0.7 1.4,0 2.6,-0.2 3.2,-0.6 0.7,-0.4 1.1,-1.1 1.1,-2 0,-0.9 -0.4,-1.6 -1.1,-2.3 -0.7,-0.6 -2.1,-1.3 -4.1,-2.1 -2.4,-1 -4.1,-2.1 -5.1,-3.4 -1,-1.2 -1.5,-2.8 -1.5,-4.8 0,-2.5 1,-4.5 2.9,-6.1 2,-1.6 4.5,-2.4 7.6,-2.4 1,0 2,0.1 3.2,0.4 1.2,0.3 2.2,0.5 3,0.8 v 6.3 c -0.9,-0.5 -1.9,-1.1 -3,-1.5 -1.2,-0.4 -2.3,-0.6 -3.4,-0.6 -1.2,0 -2.2,0.3 -2.8,0.7 -0.6,0.6 -1,1.2 -1,2.1 z m 14.6,6.9 c 0,-4.5 1.3,-8.2 3.8,-10.8 2.6,-2.7 6.1,-4 10.7,-4 4.3,0 7.6,1.2 10,3.8 2.4,2.6 3.6,6 3.6,10.4 0,4.4 -1.3,8 -3.8,10.7 -2.6,2.7 -6,4 -10.5,4 -4.3,0 -7.6,-1.2 -10.1,-3.7 -2.4,-2.6 -3.7,-6 -3.7,-10.3 z M 243.9,37.6 c 0,2.8 0.6,5.1 2,6.6 1.3,1.5 3.2,2.3 5.6,2.3 2.3,0 4.2,-0.7 5.4,-2.3 1.2,-1.5 1.9,-3.7 1.9,-6.8 0,-2.9 -0.6,-5.2 -1.9,-6.8 -1.2,-1.5 -3.1,-2.3 -5.3,-2.3 -2.4,0 -4.2,0.8 -5.5,2.4 -1.4,1.7 -2.1,3.9 -2.1,6.8 z m 43,-8.6 h -9.7 V 51.2 h -6.6 V 29 h -4.6 v -5.3 h 4.6 v -3.8 c 0,-2.8 1,-5.2 2.8,-7.1 1.9,-1.9 4.3,-2.8 7.2,-2.8 0.8,0 1.5,0.1 2.1,0.1 0.6,0 1.2,0.2 1.6,0.4 V 16 c -0.2,-0.1 -0.6,-0.3 -1.2,-0.4 -0.5,-0.2 -1.2,-0.3 -1.9,-0.3 -1.3,0 -2.4,0.4 -3.1,1.2 -0.7,0.8 -1.1,2.1 -1.1,3.7 v 3.3 h 9.7 v -6.2 l 6.5,-2 v 8.2 H 300 v 5.3 h -6.6 v 12.9 c 0,1.7 0.4,2.8 0.9,3.6 0.6,0.7 1.6,1.1 2.9,1.1 0.4,0 0.8,-0.1 1.3,-0.3 0.5,-0.2 1,-0.4 1.3,-0.6 v 5.3 c -0.4,0.3 -1.1,0.4 -2,0.6 -1,0.2 -1.9,0.3 -2.8,0.3 -2.8,0 -4.8,-0.7 -6.1,-2.1 -1.3,-1.4 -2,-3.6 -2,-6.6 l 0.1,-14 z" />
  <rect
    fill="#f25022"
    x="0"
    y="0"
    width="30.4"
    height="30.4" />
  <rect
    fill="#7fba00"
    x="33.6"
    y="0"
    width="30.4"
    height="30.4" />
  <rect
    fill="#00a4ef"
    x="0"
    y="33.6"
    width="30.4"
    height="30.4" />
  <rect
    fill="#ffb900"
    x="33.6"
    y="33.6"
    width="30.4"
    height="30.4" />
</svg>