<?xml version="1.0" encoding="utf-8"?>
<svg
  xmlns="http://www.w3.org/2000/svg"
  version="1.1"
  id="oaktree"
  viewBox="0 0 68 76"
  fill="currentColor"
  stroke="none">
  <path
    d="m 10.3,75.1 c 0,-1.1 3,-2.4 5.7,-2.4 1.6,0 2.3,-0.1 2.4,-0.3 0.1,-0.2 0.7,-0.4 1.6,-0.4 1.8,-0.1 1.9,-0.2 1.3,-0.8 -0.3,-0.4 -0.4,-0.6 -0.1,-0.7 0.2,-0.1 0.4,0 0.6,0.2 0.3,0.5 1,0.3 1,-0.2 0,-0.2 0.1,-0.4 0.3,-0.4 0.2,0 0.2,0.2 0.1,0.4 -0.2,0.4 0.6,0.9 0.9,0.5 0.5,-0.7 1.4,-0.9 1.7,-0.4 0.4,0.7 0.8,0.7 0.6,0 -0.1,-0.3 0,-0.6 0.2,-0.8 0.3,-0.3 0.4,-0.3 0.4,0.1 0,0.6 0.8,1.2 1.1,0.7 0.1,-0.2 0.2,-0.5 0.1,-0.6 -0.1,-0.1 0.2,-0.3 0.5,-0.5 0.8,-0.3 2.4,-3.3 3.2,-6 1.4,-4.5 -0.2,-13.7 -2.7,-15.1 -1.7,-0.9 -5.4,-0.8 -5.9,0.3 -0.2,0.5 -0.6,0.7 -1,0.7 -0.5,0 -0.7,0.2 -0.7,0.6 -0.1,0.4 -0.4,0.7 -0.9,0.8 -0.6,0.2 -1,0.5 -1.2,1 -0.3,0.7 -1.8,2.1 -2.7,2.4 -0.3,0.1 -0.5,0.4 -0.5,0.6 0,0.2 -0.2,0.4 -0.5,0.4 -0.7,0 -0.7,-0.6 0.1,-1.5 0.7,-0.9 0.9,-2.2 0.3,-2.7 -0.3,-0.3 -0.4,-0.2 -0.4,0.6 0,0.9 -0.4,1.3 -0.6,0.6 -0.2,-0.6 -1.2,0.9 -1.1,1.6 0.1,0.5 0,0.6 -0.4,0.6 -0.4,0 -0.6,0.1 -0.5,0.6 0.1,0.5 0,0.6 -0.6,0.6 -0.4,0 -0.8,0.2 -0.9,0.6 -0.1,0.3 -0.6,0.7 -0.9,0.8 -0.4,0.2 -0.9,0.4 -1.2,0.6 -0.4,0.3 -0.6,0.2 -1.2,-0.6 l -0.7,-0.9 -0.6,0.9 c -0.3,0.5 -0.9,1.2 -1.2,1.5 -0.4,0.4 -0.7,0.8 -0.7,1 0,0.5 -0.4,0.4 -0.6,-0.1 -0.1,-0.3 -0.2,-0.4 -0.5,-0.1 -0.6,0.6 -1,0.3 -1,-0.5 0,-1.2 -0.3,-1.6 -1,-1.6 -0.8,0 -0.8,-0.4 0.1,-1.2 0.7,-0.6 0.7,-0.7 0.3,-0.9 -0.4,-0.2 -0.4,-0.4 -0.2,-0.8 0.2,-0.3 0.2,-0.5 0.2,-0.5 -0.1,0 0,-0.4 0.1,-0.8 0.3,-1.1 0.1,-1.4 -0.5,-0.9 -0.9,0.8 -1.4,0.4 -1.5,-1 0,-0.8 0,-1.3 0.2,-1.3 0.5,0 0.3,-1.3 -0.3,-1.6 -0.7,-0.5 -0.7,-1.4 0,-1.1 0.5,0.2 0.7,-0.2 0.3,-0.5 -0.2,-0.1 -0.4,-0.9 -0.6,-2.8 -0.1,-0.5 0.1,-0.7 0.4,-0.8 0.8,-0.1 1.1,-0.5 0.7,-0.9 -0.2,-0.2 -0.3,-0.8 -0.3,-1.3 0,-0.5 -0.2,-1.1 -0.4,-1.3 -0.8,-0.7 0,-4.7 1.4,-7 0.5,-0.8 0.7,-1.4 0.6,-1.8 -0.1,-0.4 0,-0.6 0.8,-1 2.4,-1.1 3,-1.7 2.5,-2 -1.7,-1 1.3,-4.9 4.4,-5.7 1.5,-0.4 2.2,-0.7 2.3,-1.1 0.2,-0.7 -0.1,-0.9 -0.6,-0.4 -0.4,0.6 -0.9,0.4 -0.9,-0.3 0,-0.3 -0.1,-0.6 -0.3,-0.7 -0.2,-0.2 -0.2,-0.4 0.1,-0.6 0.2,-0.2 0.4,-0.5 0.4,-0.7 0,-0.8 3.2,-2.3 5.2,-2.4 0.5,0 0.9,-0.2 1.1,-0.6 0.7,-1.3 4.1,-3.6 4.8,-3.1 0.1,0.1 0.9,0.1 1.6,-0.1 1,-0.2 1.5,-0.1 1.8,0.1 0.6,0.5 0.9,0.5 0.9,0 0,-0.2 -0.2,-0.5 -0.4,-0.6 -0.7,-0.3 0.1,-1.6 2.5,-4.1 0.3,-0.3 0.4,-0.8 0.4,-1 -0.2,-0.8 0.7,-1 1.3,-0.2 0.3,0.3 0.5,0.6 0.6,0.5 0,-0.1 0.2,-0.4 0.4,-0.7 0.2,-0.4 0.6,-0.5 1.5,-0.5 0.8,0 1.4,-0.2 1.7,-0.5 0.6,-0.5 1.4,-0.6 2,-0.1 1,0.8 3.3,0.2 4.6,-1 0.7,-0.6 1.5,-1.2 1.8,-1.2 0.3,0 1.1,-0.4 1.8,-1 1.4,-1.1 2.6,-1.7 3,-1.5 0.1,0.1 0.6,0 0.9,-0.2 0.5,-0.2 0.7,-0.3 0.8,-0.1 0.1,0.2 0.4,0.3 0.7,0.4 0.4,0.1 0.5,0.3 0.4,0.7 -0.1,0.4 0.1,0.7 0.4,0.8 0.3,0.1 0.9,0.6 1.5,1.2 0.6,0.6 1.3,1.1 1.6,1.2 0.7,0.2 0.9,0.6 0.9,1.5 0,0.9 0.4,2.3 1,3.4 0.5,0.9 0.5,1.1 -0.2,0.9 -0.5,-0.1 -1.6,0.1 -2.8,0.5 -0.6,0.2 0,0.9 0.8,1 0.5,0.1 1,0.3 1.2,0.6 0.2,0.2 0.6,0.4 0.9,0.4 0.7,0 2.8,1.4 2.8,1.9 0,0.2 -0.1,0.5 -0.2,0.7 -0.2,0.3 0,0.6 0.5,1.3 0.4,0.5 0.8,1.1 0.8,1.4 0,0.3 0.2,0.5 0.4,0.5 1.4,0 1.8,2.4 0.6,3.7 -1.9,2.2 -2,3.5 0,2.3 0.5,-0.4 1.1,-0.7 1.2,-0.7 0.1,0 0.4,-0.4 0.6,-0.9 0.8,-1.4 2.2,-1.1 3.1,0.8 1.9,3.9 1.8,3.6 1.2,4.2 -0.4,0.4 -0.4,0.5 0,0.8 0.5,0.4 0.3,1.5 -0.3,1.5 -1,0 -1.5,0.9 -1.2,2.6 0.2,1.8 0.2,2.1 -0.6,2.1 -0.3,0 -0.6,0.2 -0.6,0.6 0,0.3 -0.4,0.8 -0.9,1.2 -0.4,0.3 -0.9,0.9 -1,1.2 -0.2,0.6 -0.3,0.6 -0.9,0.2 -0.6,-0.4 -0.7,-0.4 -1.2,0 -0.3,0.2 -0.8,0.4 -1,0.4 -1.3,0 -1.2,2.4 0.1,2.9 1.4,0.6 1.6,4 0.2,3.6 -0.3,-0.1 -0.5,0 -0.6,0.1 -0.2,0.4 -2.2,1.3 -2.7,1.3 -0.3,0 -0.5,0.2 -0.5,0.4 0,0.2 -0.2,0.4 -0.5,0.4 -0.3,0 -0.9,0.3 -1.4,0.6 -0.5,0.4 -1.2,0.7 -1.4,0.8 -0.4,0.1 -0.4,0.1 0.1,0.3 0.8,0.3 0.9,0.8 0.3,1.5 -0.3,0.3 -0.5,0.5 -0.3,0.6 0.1,0 0.5,0 0.8,0.1 0.9,0.1 0.9,1.4 0,1.9 -0.7,0.4 -0.7,0.4 -1.3,-0.1 -0.4,-0.3 -0.8,-0.5 -1,-0.4 -0.2,0.1 -0.6,0 -0.8,-0.2 -0.2,-0.2 -0.6,-0.4 -0.9,-0.5 -0.6,-0.2 -0.8,-0.8 -0.3,-1.1 0.5,-0.3 0.3,-0.7 -0.6,-1 -0.9,-0.4 -1.6,-1.3 -1.3,-1.6 0.1,-0.1 0.1,-0.4 0,-0.6 -0.2,-0.4 -0.2,-0.4 -0.5,0 -0.2,0.3 -0.4,0.4 -0.5,0.2 -0.1,-0.2 0.1,-0.5 0.4,-0.8 0.3,-0.3 0.5,-0.6 0.5,-0.9 0,-0.3 -0.1,-0.2 -0.5,0.2 -0.3,0.3 -0.6,0.6 -0.8,0.6 -0.5,0 -0.3,-0.6 0.2,-1.1 0.9,-0.8 0.4,-2 -0.9,-2 -2.4,0 -4,1.2 -4.7,3.6 -2.7,8.3 -2.4,22.4 0.5,22.4 0.2,0 0.4,0.1 0.4,0.3 0,0.2 0.3,0.2 0.8,0.1 0.7,-0.1 0.8,-0.1 0.6,0.4 -0.2,0.5 -0.1,0.5 0.7,0.4 0.5,-0.1 1.1,0 1.3,0.1 1.1,0.6 3,1 3.2,0.7 0.1,-0.2 0.4,-0.2 0.9,0 0.4,0.2 1.8,0.3 3.1,0.3 2.3,0 5,0.5 5.7,1.1 0.2,0.1 1,0.4 1.8,0.5 1.6,0.3 3.9,1.3 4,1.8 0.1,0.3 -5.3,0.3 -26.2,0.3 -15.7,0 -26.3,-0.1 -26.3,-0.2 z m 25.1,-24.3 c 2.3,-3.2 -1.5,-9.4 -4.9,-8.1 -0.8,0.3 -0.5,1.7 0.7,2.9 0.6,0.6 1.1,1.3 1.1,1.7 0,0.8 0.9,3.2 1.5,3.8 0.6,0.7 1,0.6 1.7,-0.3 z m -6.5,-4.7 c 0.5,-0.5 -1.1,-2.7 -2.1,-2.7 -1.6,0.1 -1.8,1.4 -0.3,2.4 0.6,0.4 2.1,0.6 2.4,0.2 z m 22,-0.1 c 0.1,-0.1 -0.1,-0.3 -0.3,-0.4 -0.7,-0.2 -0.9,-0.6 -0.9,-1.6 0,-0.9 -0.4,-1.2 -1.7,-1 -1.1,0.1 -1.4,0.6 -1,1.4 0.8,1.4 3.3,2.5 3.8,1.6 z m -7.7,-4.4 c 0.5,-0.4 0.6,-0.4 1.2,-0.1 1,0.6 2.5,-0.2 3.1,-1.5 0.8,-1.7 -0.2,-2.4 -1.3,-0.8 -0.3,0.5 -0.7,0.9 -0.9,0.9 -0.4,0 -0.4,-0.1 0,-0.8 0.2,-0.3 0.2,-0.7 0.1,-0.9 -0.3,-0.7 -2.6,0.7 -3.2,1.8 -0.8,1.4 -0.1,2.3 1,1.3 z m -4.2,-1.1 c 0.9,-2.3 -0.1,-7.6 -1.4,-7.6 -0.7,0 -0.6,1.8 0,3.2 0.6,1.1 0.6,1.2 0.1,1.7 -0.5,0.5 -0.5,0.5 0.1,0.9 0.5,0.3 0.5,0.5 0.3,0.9 -0.2,0.3 -0.2,0.7 -0.1,0.9 0.2,0.5 0.9,0.5 1.1,-0.1 z m -4,-3 c 0.1,-0.2 -0.2,-0.7 -0.5,-1.1 -0.7,-0.9 -0.8,-1.5 -0.2,-1.5 0.3,0 0.4,-0.1 0.3,-0.4 -0.1,-0.2 -0.2,-0.5 -0.2,-0.7 0,-0.1 -0.3,-0.2 -0.6,-0.1 -0.4,0.1 -0.7,0 -0.8,-0.3 -0.3,-0.7 -0.7,-0.5 -0.7,0.3 0,0.4 0.3,1.2 0.7,1.7 0.4,0.5 0.8,1.3 0.9,1.6 0.3,0.7 0.9,0.9 1.1,0.3 z m 24,-4.1 c 0.6,-0.1 1,-0.3 1.1,-0.6 0.1,-0.3 0.4,-0.5 0.7,-0.6 1.2,-0.2 0.4,-0.6 -1,-0.5 -1.1,0.1 -1.6,0.2 -1.9,0.7 -0.9,1.1 -0.6,1.4 1.2,1.1 z m -43,-2.7 c 0.1,-0.1 0.7,-0.3 1.2,-0.3 1.2,-0.1 1.2,-0.6 0,-0.7 -0.5,0 -1,-0.2 -1.2,-0.3 -0.3,-0.3 -2.3,1.2 -2.3,1.6 0,0.3 1.8,0 2.3,-0.3 z m 24.9,-0.9 c -0.5,-1.5 -0.6,-1.8 -1,-1.6 -0.2,0.1 -0.6,0.2 -1,0.2 -0.5,0 -0.7,0.2 -0.7,0.6 -0.1,0.5 0,0.5 0.4,0.4 0.3,-0.1 0.8,0.1 1.1,0.4 0.8,0.8 1.4,0.7 1.1,0 z" />
</svg>