<?xml version="1.0" encoding="utf-8"?>
<svg
  xmlns="http://www.w3.org/2000/svg"
  version="1.1"
  id="pcbway"
  viewBox="0 0 200 60"
  stroke="none">
  <path
    d="M 1.1,50.8 C 25.9,46 51.1,42.7 76.3,40.6 c 14,-1.1 28,-2 42,-2 19,-0.2 38.7,0.8 57.6,2.7 l -0.6,1.6 C 149.9,40.6 132,40.3 116.6,41.2 100.3,41.8 84.2,43.1 68,45 45.2,47.6 22.5,51.5 0,55.9 Z M 198.8,44.9 c -4.3,-0.3 -10.7,-0.8 -15,-1.2 l 0.6,-1.5 C 189,42.7 195.4,43.4 200,44 Z"
    style="fill:#f39a00;" />
  <path
    d="M 178.1,35.4 168.2,8.9 h 8.8 l 5.7,17 5.5,-17 8.6,0 -13.7,37.1 -9.1,0 z m -27.9,1.3 c -4.2,-0.4 -7.6,-4.5 -7.2,-8.7 -0.2,-3.2 1.7,-6.4 4.7,-7.6 3.9,-1.8 8.2,-1.8 12.4,-2.2 0.3,-2 -1.3,-3.6 -3.1,-3.8 -3.7,-1 -7.6,0.1 -11,1.6 -1.4,0.2 -0.4,-2 -0.7,-3 0.1,-1.1 -0.2,-2.4 0.1,-3.5 5.4,-1.4 11.4,-2 16.8,-0.5 3.3,0.7 5.9,3.6 6.2,7 0.1,6.7 0,13.4 0.1,20.1 h -8.3 c -0.2,-0.7 0.4,-2.8 -0.3,-2.7 -2.5,2.5 -6,3.8 -9.6,3.4 z m 7.1,-6.1 c 1,-0.4 2.5,-0.9 2.7,-2.1 v -5.3 c -2.6,0.2 -5.6,0.1 -7.7,1.8 -1.2,1.3 -1.2,3.8 0.1,5.1 1.4,0.9 3.3,1 4.9,0.5 z M 66.4,0.1 c 6.1,0.1 12.2,-0.2 18.3,0.2 3.5,0.3 7.3,2.4 8,6.2 0.5,2.8 0,5.8 -2.1,7.9 -0.7,0.8 -1.9,1.3 -2.7,1.9 1.2,0.6 2.9,0.9 4.1,1.9 2.2,1.3 2.8,4 2.7,6.4 0,2.3 0.4,4.9 -1.3,6.7 -2.8,3.8 -7.9,5 -12.5,4.8 -4.8,0 -9.6,0 -14.5,0.1 z m 15.9,29.2 c 2.1,-0.3 4,-2.2 3.7,-4.4 0.4,-2.6 -2.2,-4.5 -4.6,-4.4 -2,-0.2 -4,-0.1 -6,-0.1 0,3.1 -0.2,6.2 0,9.2 2.3,-0.2 4.6,0.2 6.8,-0.3 z M 81.1,14 C 82.9,13.6 83.9,11.7 83.6,10 83.8,7.9 81.7,6.5 79.8,6.6 c -1.5,0 -2.9,0 -4.4,0 v 7.7 c 1.9,-0.2 3.9,0.2 5.8,-0.3 z M 3.9,0.5 c 5.8,0.1 11.6,-0.1 17.4,0.2 3.6,0 7,2 8.6,5.3 1.5,3.2 1.5,7 0.3,10.2 -1.5,3.7 -5.3,6.1 -9.3,6.2 -3.3,0.3 -6.6,0.1 -9.9,0.2 l -0.1,13.4 h -7 z m 12.4,16.1 c 2.4,0 5.4,-0.2 6.7,-2.5 C 24.7,11.6 23.5,7.8 20.6,6.9 17.5,6.2 14.3,6.5 11.1,6.4 l 0,10.2 z M 95.3,0 h 9.3 L 109.5,24 115.7,0 l 9,0 5.7,24.1 5.3,-24.1 h 9 l -9.1,36 h -9.9 l -5.8,-22.2 -5.7,22.2 -9.9,0 z M 49,35.2 c -6.7,-0.1 -13.1,-4.5 -15.3,-10.8 -2.1,-6.1 -1.2,-13.5 3.6,-18.2 5.5,-5.8 15,-7 22,-3.1 2,1.1 4,2.6 5.4,4.4 -1.4,1.4 -2.8,2.7 -4.3,4.1 -3.1,-3.2 -7.5,-5.3 -12,-4.5 -5.2,0.6 -9.5,5.5 -9.5,10.7 -0.2,4.1 1.9,8.4 5.7,10.3 2.7,1.4 5.9,1.6 8.8,1 2.7,-0.6 5,-2.4 6.9,-4.3 1.4,1.5 2.9,2.9 4.1,4.4 -3.4,3.5 -8,6.1 -13,6.2 -0.8,0.1 -1.6,0.1 -2.4,0 z"
    style="fill:#11a73b;" />
</svg>