<?xml version="1.0" encoding="utf-8"?>
<svg
  xmlns="http://www.w3.org/2000/svg"
  version="1.1"
  id="wetpaint"
  viewBox="0 0 200 200"
  fill="currentColor"
  stroke="none">
  <path
    style="fill:#5c8218;"
    d="m 168.2,80.1 c 0,8.6 -6.9,15.6 -15.4,15.6 h -11.2 v -31.1 h 11.2 c 8.5,0 15.4,7 15.4,15.6 z" />
  <path
    style="fill:#5c8218;"
    d="m 19,62.2 h 6.7 c 4.2,13.5 7.3,28.7 11.2,42.3 l 8.4,-42.3 h 24.8 c 3.1,16.2 6.1,32.5 9.2,48.7 3.3,-16.3 7.1,-32.4 10.5,-48.7 h 18 v -38 l 39.6,-0.1 A 89.3,89.3 0 0 0 100,10.5 89.3,89.3 0 0 0 19,62.2 Z" />
  <path
    style="fill:#5c8218;"
    d="M 107.8,188.8 V 88.8 L 88.1,172.7 H 64.1 l -9.4,-49.3 -9.5,47 a 89.3,89.3 0 0 0 54.7,18.7 89.3,89.3 0 0 0 7.8,-0.3 z" />
  <path
    style="fill:#5c8218;"
    d="m 188,115.1 a 54.6,54.6 0 0 1 -40.6,18.1 h -5.9 v 45.7 c 24.6,-12.9 41.8,-36.5 46.5,-63.8 z" />
  <path
    d="M 0,63 A 106.5,106.5 0 0 1 62.7,0 H 0 Z" />
  <path
    d="M 62.7,200 C 33.6,189.1 10.7,165.7 0,136.6 V 200 Z" />
  <path
    d="M 200,136.6 C 189.3,165.7 166.4,189.1 137.3,200 H 200 Z" />
  <path
    d="M 137.3,0 A 106.5,106.5 0 0 1 200,63 V 0 Z" />
</svg>