<svg xmlns="http://www.w3.org/2000/svg"
   id="fpa"
   viewBox="0 0 120 48"
>
  <path style="fill:currentColor"
     aria-label="FPA"
     d="m 56,38.5 h 5.4 V 26.6 h 9 v -5.2 h -9 v -6.8 h 9.4 V 9.5 H 56 Z m 19.4,0 H 80.8 V 27.5 h 1.7 c 4,0 5.8,-0.3 7.4,-1.2 2.5,-1.4 4,-4.4 4,-7.9 0,-3.3 -1.3,-5.9 -3.7,-7.5 C 88.5,9.9 86.5,9.5 82.5,9.5 h -7.2 z M 80.8,22.4 v -7.7 h 1.8 c 1.8,0 2.6,0.1 3.4,0.3 1.6,0.4 2.5,1.8 2.5,3.7 0,1.6 -0.9,3 -2.5,3.4 -0.9,0.3 -2.1,0.4 -3.7,0.4 z M 91.7,38.5 h 5.9 l 3.2,-7.5 h 10.3 L 114.1,38.5 h 5.9 l -12,-29 h -4.2 z m 11.1,-12.7 3.1,-8.8 3.1,8.8 z" />
  <path style="fill:#418fde"
     d="m 40,8 -8,8 H 16 v 6 h 8 v 8 h -8 v 10 l -8,8 h 8.1 c 0.6,0 1.1,-0.4 1.3,-1 l 1.5,-4.5 c 0.1,-0.4 0.5,-0.8 0.9,-0.9 l 1.1,-0.4 c 0.4,-0.1 0.9,-0.1 1.3,0.2 l 3.8,2.8 c 0.5,0.4 1.2,0.4 1.7,0 l 3.4,-2.5 c 0.5,-0.4 0.7,-1 0.5,-1.6 L 30.1,35.6 C 30,35.2 30,34.7 30.3,34.3 l 0.7,-1 c 0.3,-0.4 0.7,-0.6 1.1,-0.6 h 4.7 c 0.6,0 1.1,-0.4 1.3,-1 l 1.3,-4 c 0.2,-0.6 0,-1.2 -0.5,-1.6 L 35.1,23.7 C 34.7,23.4 34.5,23 34.5,22.6 v -1.2 c 0,-0.5 0.2,-0.9 0.6,-1.1 l 4.4,-3.2 C 39.8,16.9 40,16.4 40,16 Z" />
  <path style="fill:#ff585d"
     d="m 32,0 -8,8 h 8 v 8 L 40,8 V 0 Z M 8,32 0,40 v 8 h 8 l 8,-8 H 8 Z" />
  <path style="fill:#cb333b"
     d="M 8,0 0,8 V 40 L 8,32 V 8 h 16 l 8,-8 z" />
  <path style="fill:#fefefe"
     d="m 8,40 h 8 V 30 h 8 V 22 H 16 V 16 H 32 V 8 H 8 Z" />
</svg>
