<?xml version="1.0" encoding="UTF-8"?>
<svg
  viewBox="0 0 400 480"
  version="1.1"
  id="symbol"
  stroke="none"
  xmlns="http://www.w3.org/2000/svg"
  xmlns:svg="http://www.w3.org/2000/svg"
  xmlns:rdf="http://www.w3.org/1999/02/22-rdf-syntax-ns#"
  xmlns:cc="http://creativecommons.org/ns#"
  xmlns:dc="http://purl.org/dc/elements/1.1/">
  <title>FreeCAD-symbol</title>
  <metadata>
    <rdf:RDF>
      <cc:Work rdf:about="">
        <dc:title>FreeCAD-symbol</dc:title>
        <dc:creator>
          <cc:Agent>
            <dc:title>Sebastian Tabares Amaya (sytabaresa), Max Wilfinger (maxwxyz)</dc:title>
          </cc:Agent>
        </dc:creator>
        <dc:publisher>
          <cc:Agent>
            <dc:title>The FreeCAD project association AISBL (FPA)</dc:title>
          </cc:Agent>
        </dc:publisher>
        <dc:date>2024-06-01</dc:date>
        <dc:description>A white letter F on a background that is split diagonally in half, blue on the bottom with a shape of a gear and red on the top.</dc:description>
      </cc:Work>
    </rdf:RDF>
  </metadata>
  <path
    style="fill:#418fde;fill-opacity:1;fill-rule:evenodd;"
    d="m 400,80 -80,80 H 160 v 60 h 80 v 80 h -80 v 100 l -80,80 h 81 c 6.1,0 11.4,-3.9 13.3,-9.7 l 14.5,-44.6 c 1.4,-4.3 4.7,-7.6 9,-9 l 11.1,-3.6 c 4.3,-1.4 8.9,-0.7 12.6,2 l 37.9,27.5 c 4.9,3.6 11.6,3.6 16.5,0 l 34,-24.7 c 4.9,-3.6 7,-9.9 5.1,-15.6 l -14.5,-44.6 c -1.4,-4.3 -0.6,-8.9 2,-12.6 l 6.9,-9.5 c 2.6,-3.6 6.8,-5.8 11.3,-5.8 l 46.9,0 c 6.1,0 11.4,-3.9 13.3,-9.7 l 13,-39.9 c 1.9,-5.8 -0.2,-12.1 -5.1,-15.7 L 350.8,237.2 c -3.6,-2.6 -5.8,-6.8 -5.8,-11.3 V 214.1 c 0,-4.5 2.1,-8.7 5.8,-11.3 l 43.5,-31.6 C 397.9,168.6 400,164.4 400,159.9 Z" />
  <path
    style="fill:#ff585d;fill-opacity:1;fill-rule:evenodd;"
    d="m 320,0 -80,80 h 80 v 80 L 400,80 V 0 Z M 80,320 0,400 v 80 h 80 l 80,-80 H 80 Z" />
  <path
    style="fill:#cb333b;fill-opacity:1;fill-rule:evenodd;"
    d="M 80,0 0,80 V 400 L 80,320 V 80 H 240 L 320,0 Z" />
  <path
    style="fill:#ffffff;fill-opacity:1;fill-rule:evenodd;"
    d="m 80,400 h 80 V 300 h 80 V 220 H 160 V 160 H 320 V 80 H 80 Z" />
</svg>
